<svg width="81" height="80" viewBox="0 0 81 80" fill="none" xmlns="http://www.w3.org/2000/svg">
<path d="M60.2622 7.82429H57.6541V5.21619H60.2622V7.82429ZM55.046 7.82429H52.4379V5.21619H55.046V7.82429ZM49.8298 7.82429H47.2217V5.21619H49.8298V7.82429Z" fill="#464045"/>
<path d="M19.8368 3.91211C9.05107 3.91211 0.276123 12.6871 0.276123 23.4729V39.1215C0.276123 44.3703 2.75381 49.34 6.9033 52.5402C8.45903 51.3965 10.2821 50.5789 12.2877 50.215L15.9234 49.5539L15.9208 46.5011C15.9208 45.9795 15.6104 45.5074 15.1305 45.3027C10.0721 43.1353 6.79246 38.1604 6.79376 32.6573L6.79637 22.504C6.79637 23.7585 7.81483 24.7769 9.06933 24.7769C10.0474 24.7769 10.9171 24.151 11.2262 23.2225L11.4883 22.4361C11.8013 21.4972 12.6802 20.8648 13.6687 20.8648C14.2777 20.8648 14.8632 21.1073 15.2935 21.5377L15.9247 22.1688L16.5559 21.5377C16.9862 21.1073 17.5717 20.8648 18.1807 20.8648H18.3215C19.2266 20.8648 20.0298 21.4438 20.3167 22.3031C20.8084 23.7806 22.192 24.7769 23.749 24.7769C24.804 24.7769 25.7781 24.3205 26.451 23.5668L26.5814 23.6972C27.2725 24.3883 28.2115 24.7769 29.1895 24.7769C31.2264 24.7769 32.8773 23.126 32.8773 21.0891V20.8648L32.88 32.6573C32.8813 38.1604 29.6016 43.1353 24.5432 45.304C24.0633 45.51 23.7529 45.9808 23.7529 46.5024L23.7503 49.5539L27.386 50.215C29.3903 50.5802 31.2108 51.3991 32.7665 52.5441C36.9186 49.3439 39.3976 44.3729 39.3976 39.1215V23.4729C39.3976 12.6871 30.6226 3.91211 19.8368 3.91211Z" fill="#FCC53B"/>
<path d="M60.2625 16.9528H75.9111V22.169H60.2625V16.9528Z" fill="#FCC53B"/>
<path d="M77.2149 0H45.9177C43.7608 0 42.0056 1.75525 42.0056 3.91215V35.2094C42.0056 37.3663 43.7608 39.1215 45.9177 39.1215H57.6542V41.1898C57.6542 42.9254 59.0665 44.3377 60.8022 44.3377C61.6315 44.3377 62.4426 44.0013 63.0282 43.4158L67.3224 39.1215H77.2149C79.3718 39.1215 81.1271 37.3663 81.1271 35.2094V3.91215C81.1271 1.75525 79.3718 0 77.2149 0ZM45.9177 2.6081H77.2149C77.9348 2.6081 78.519 3.19362 78.519 3.91215V10.4324H44.6137V3.91215C44.6137 3.19362 45.1979 2.6081 45.9177 2.6081ZM77.2149 36.5134H66.2426L61.1842 41.5718C60.8739 41.8822 60.2623 41.6305 60.2623 41.1898V36.5134H45.9177C45.1979 36.5134 44.6137 35.9279 44.6137 35.2094V13.0405H78.519V35.2094C78.519 35.9279 77.9348 36.5134 77.2149 36.5134Z" fill="#464045"/>
<path d="M26.357 29.9931C27.0772 29.9931 27.661 29.4092 27.661 28.689C27.661 27.9688 27.0772 27.385 26.357 27.385C25.6368 27.385 25.053 27.9688 25.053 28.689C25.053 29.4092 25.6368 29.9931 26.357 29.9931Z" fill="#464045"/>
<path d="M13.3167 29.9931C14.0369 29.9931 14.6208 29.4092 14.6208 28.689C14.6208 27.9688 14.0369 27.385 13.3167 27.385C12.5965 27.385 12.0127 27.9688 12.0127 28.689C12.0127 29.4092 12.5965 29.9931 13.3167 29.9931Z" fill="#464045"/>
<path d="M26.3572 35.2094V33.9054H13.3167V35.2094C13.3167 38.8047 16.2417 41.7297 19.837 41.7297C23.4322 41.7297 26.3572 38.8047 26.3572 35.2094ZM16.1478 36.5135H23.5261C22.9876 38.0314 21.5375 39.1216 19.837 39.1216C18.1365 39.1216 16.6864 38.0314 16.1478 36.5135Z" fill="#464045"/>
<path d="M61.5664 52.162H38.0935C37.079 52.162 36.1609 52.5598 35.4646 53.1962C33.3768 50.9845 30.6539 49.4835 27.6181 48.9319L25.0543 48.4664L25.0557 46.5012C30.6018 44.1252 34.184 38.6899 34.1827 32.656L34.1814 19.5608H31.5733V20.8648V21.0878C31.5733 22.4036 30.504 23.4729 29.1895 23.4729C28.8439 23.4729 28.5062 23.3895 28.1945 23.246C28.2754 23.0726 28.3575 22.8991 28.4201 22.7153L28.8987 21.2769L26.4236 20.4527L25.9463 21.8898C25.6294 22.8365 24.7479 23.4729 23.749 23.4729C22.7501 23.4729 21.8686 22.8365 21.553 21.8911C21.09 20.4971 19.7912 19.5608 18.3215 19.5608H18.1807C17.3513 19.5608 16.5637 19.8398 15.926 20.3536C15.287 19.8398 14.4994 19.5608 13.67 19.5608C12.1169 19.5608 10.7424 20.5505 10.2534 22.0241L9.99129 22.8105C9.85828 23.2069 9.48662 23.4729 9.06933 23.4729C8.53467 23.4729 8.10042 23.0387 8.10042 22.5027V19.5608H5.49232V20.8648L5.48971 32.6574C5.48841 38.6912 9.07063 44.1252 14.6167 46.5025L14.618 48.4651L12.0543 48.9319C5.2302 50.1734 0.276123 56.1068 0.276123 63.0457V69.1147C0.276123 75.5867 5.54057 80.8512 12.0125 80.8512H25.053H26.3558H60.2624C63.1391 80.8512 65.4786 78.5117 65.4786 75.635V56.0742C65.4786 53.9173 63.7233 52.162 61.5664 52.162ZM36.7895 56.0742C36.7895 55.3544 37.3737 54.7701 38.0935 54.7701H39.3976V73.0269H36.7895V56.0742ZM34.2166 55.7312C34.2062 55.846 34.1814 55.9568 34.1814 56.0742V73.0269H31.5733V60.2941C31.5733 58.3276 30.6318 56.5371 29.0734 55.4157L29.5325 52.2025C31.3594 52.9562 32.9647 54.1638 34.2166 55.7312ZM26.3245 73.0269C26.1563 70.1254 23.7659 67.8107 20.8227 67.8107C18.9488 67.8107 17.2157 68.7352 16.1855 70.2831L15.4252 71.4242L10.7085 69.5359V60.2954C10.7085 59.2222 11.2001 58.2376 12.0269 57.5999C14.4746 58.8936 17.3918 58.891 19.8368 57.5921C22.2819 58.891 25.1991 58.8936 27.6468 57.5999C28.4736 58.2363 28.9652 59.2209 28.9652 60.2941V73.0269H26.3245ZM17.2248 46.5012C17.2248 45.4553 16.6028 44.5151 15.643 44.1043C11.058 42.1391 8.09651 37.6467 8.09781 32.6574L8.09912 25.9298C8.40948 26.0184 8.73158 26.081 9.06933 26.081C10.612 26.081 11.976 25.0978 12.4637 23.6359L12.7272 22.8483C12.9462 22.1923 13.8799 21.972 14.3729 22.4597L15.9247 24.0141L17.4765 22.461C17.6656 22.2732 17.9147 22.1689 18.1794 22.1689H18.3202C18.6645 22.1689 18.9684 22.388 19.0779 22.7153C19.7508 24.7287 21.6273 26.081 23.749 26.081C24.7375 26.081 25.666 25.7785 26.451 25.2608C27.2569 25.7928 28.1997 26.081 29.1895 26.081C30.058 26.081 30.8626 25.8385 31.5746 25.4473L31.5759 32.6574C31.5772 37.6467 28.6144 42.1404 24.032 44.1043C23.0709 44.5151 22.4489 45.4566 22.4489 46.5012L22.4449 50.6428L27.0013 51.4696L26.4601 55.2592C24.6005 56.2581 22.3445 56.1785 20.5606 54.9892L19.8368 54.5067L19.1131 54.9892C17.3292 56.1772 15.0732 56.2581 13.2136 55.2592L12.6724 51.4696L17.2287 50.6428L17.2248 46.5012ZM2.88422 69.1147V63.0457C2.88422 58.2141 5.82485 53.9864 10.1426 52.2064L10.6016 55.417C9.04194 56.5371 8.10042 58.3289 8.10042 60.2941V69.6116L6.21346 70.5557L7.38058 72.8886L9.46576 71.8467L16.4242 74.6295L18.3581 71.728C18.9031 70.9091 19.8251 70.4188 20.824 70.4188C22.3289 70.4188 23.5573 71.5637 23.7177 73.0269H21.1409V76.939C21.1409 77.398 21.2348 77.8336 21.3808 78.2431H12.0125C6.98024 78.2431 2.88422 74.147 2.88422 69.1147ZM26.3558 78.2431H25.053C24.3332 78.2431 23.749 77.6589 23.749 76.939V75.635H39.3976C39.3976 77.0733 38.2279 78.2431 36.7895 78.2431H26.3558ZM60.2624 78.2431H41.2806C41.7292 77.4724 42.0057 76.5895 42.0057 75.635H62.8705C62.8705 77.0733 61.7008 78.2431 60.2624 78.2431ZM62.8705 73.0269H42.0057V54.7701H61.5664C62.2863 54.7701 62.8705 55.3544 62.8705 56.0742V73.0269Z" fill="#464045"/>
<path d="M52.438 57.3781C50.2811 57.3781 48.5259 59.1332 48.5259 61.2901C48.5259 63.447 50.2811 65.2024 52.438 65.2024C54.5949 65.2024 56.3501 63.447 56.3501 61.2901C56.3501 59.1332 54.5949 57.3781 52.438 57.3781ZM52.438 62.5942C51.7182 62.5942 51.134 62.0099 51.134 61.2901C51.134 60.5703 51.7182 59.9861 52.438 59.9861C53.1578 59.9861 53.7421 60.5703 53.7421 61.2901C53.7421 62.0099 53.1578 62.5942 52.438 62.5942Z" fill="#464045"/>
<path d="M51.1338 20.8649H53.7419C54.4617 20.8649 55.046 21.4504 55.046 22.1689H57.6541C57.6541 20.012 55.8988 18.2568 53.7419 18.2568V15.6487H51.1338V18.2568C48.9769 18.2568 47.2217 20.012 47.2217 22.1689C47.2217 24.3258 48.9769 26.0811 51.1338 26.0811H53.7419C54.4617 26.0811 55.046 26.6666 55.046 27.3851C55.046 28.1037 54.4617 28.6892 53.7419 28.6892H51.1338C50.414 28.6892 49.8298 28.1037 49.8298 27.3851H47.2217C47.2217 29.542 48.9769 31.2973 51.1338 31.2973V33.9054H53.7419V31.2973C55.8988 31.2973 57.6541 29.542 57.6541 27.3851C57.6541 25.2282 55.8988 23.473 53.7419 23.473H51.1338C50.414 23.473 49.8298 22.8874 49.8298 22.1689C49.8298 21.4504 50.414 20.8649 51.1338 20.8649Z" fill="#464045"/>
<path d="M60.2625 33.9054H75.9111V26.0811H60.2625V33.9054ZM62.8705 28.6892H73.303V31.2973H62.8705V28.6892Z" fill="#464045"/>
<path d="M60.2625 15.6487H75.9111V18.2568H60.2625V15.6487Z" fill="#464045"/>
<path d="M60.2625 20.8647H75.9111V23.4728H60.2625V20.8647Z" fill="#464045"/>
</svg>
