<svg width="77" height="63" viewBox="0 0 77 63" fill="none" xmlns="http://www.w3.org/2000/svg">
<path d="M60.5404 30.1607C60.1247 30.1607 59.7176 30.192 59.3105 30.2246V2.55949H35.7164C35.2072 1.10289 33.8544 0.050293 32.2531 0.050293C30.6517 0.050293 29.2989 1.10289 28.7897 2.55949H0.276123V50.2342H44.9983C46.671 57.4156 52.995 62.7802 60.5404 62.7802C69.3562 62.7802 76.5288 55.4634 76.5288 46.4704C76.5288 37.4775 69.3562 30.1607 60.5404 30.1607ZM60.5404 60.271C59.2182 60.271 57.81 58.3552 56.8396 55.2526H64.2411C63.2707 58.3552 61.8625 60.271 60.5404 60.271ZM56.2124 52.7434C55.9123 51.2266 55.7106 49.5404 55.6466 47.725H65.4341C65.3701 49.5404 65.1672 51.2266 64.8683 52.7434H56.2124ZM47.0744 47.725H53.1881C53.2447 49.5053 53.4144 51.1915 53.6911 52.7434H48.5047C47.7348 51.2116 47.233 49.5191 47.0744 47.725ZM64.2411 37.6882H56.8396C57.81 34.5856 59.2195 32.6699 60.5404 32.6699C61.8612 32.6699 63.2707 34.5856 64.2411 37.6882ZM64.8683 40.1974C65.1684 41.7143 65.3701 43.4004 65.4341 45.2158H55.6466C55.7106 43.4004 55.9135 41.7143 56.2124 40.1974H64.8683ZM54.2618 37.6882H50.1122C51.6446 35.7976 53.6678 34.3435 55.9713 33.4966C55.2924 34.6496 54.7144 36.0635 54.2618 37.6882ZM48.5047 40.1974H53.6911C53.4144 41.7494 53.2435 43.4356 53.1881 45.2158H47.0744C47.233 43.4205 47.7348 41.7293 48.5047 40.1974ZM67.8926 47.725H74.0063C73.8465 49.5191 73.3459 51.2116 72.5748 52.7434H67.3883C67.6663 51.1915 67.8372 49.5053 67.8926 47.725ZM67.8926 45.2158C67.836 43.4356 67.6663 41.7494 67.3896 40.1974H72.576C73.3459 41.7293 73.8477 43.4218 74.0076 45.2158H67.8926ZM70.9685 37.6882H66.8189C66.3663 36.0635 65.7883 34.6496 65.1081 33.4966C67.4129 34.3435 69.4349 35.7976 70.9685 37.6882ZM32.2531 2.55949C32.9307 2.55949 33.4829 3.12279 33.4829 3.81409C33.4829 4.50539 32.9307 5.06869 32.2531 5.06869C31.5754 5.06869 31.0232 4.50539 31.0232 3.81409C31.0232 3.12279 31.5754 2.55949 32.2531 2.55949ZM28.7897 5.06869C29.2989 6.52529 30.6517 7.57789 32.2531 7.57789C33.8544 7.57789 35.2072 6.52529 35.7164 5.06869H56.8507V12.5963H2.73589V5.06869H28.7897ZM2.73589 47.725V15.1055H56.8507V30.6161C49.8109 32.3223 44.5519 38.7735 44.5519 46.4704C44.5519 46.8945 44.5826 47.3098 44.6146 47.725H2.73589ZM50.1122 55.2526H54.2618C54.7144 56.8773 55.2924 58.2913 55.9726 59.4442C53.6678 58.5961 51.6458 57.1433 50.1122 55.2526ZM65.1081 59.4442C65.7883 58.2913 66.3663 56.8773 66.8189 55.2526H70.9685C69.4349 57.1433 67.4129 58.5961 65.1081 59.4442Z" fill="#464045"/>
</svg>
