<svg width="81" height="77" viewBox="0 0 81 77" fill="none" xmlns="http://www.w3.org/2000/svg">
<path d="M65.5327 74.4194L66.0127 72.4994C66.2553 71.5277 66.632 70.5935 67.1288 69.7239L69.8411 64.9781C71.0062 62.9381 71.623 60.6168 71.623 58.2658C71.623 55.3935 70.7159 52.7316 69.183 50.5393C70.7598 48.5097 71.623 46.04 71.623 43.4516V40.871H68.1146C64.8114 40.871 61.6411 42.3368 59.4488 44.8103C59.0049 44.7664 58.5546 44.7419 58.0991 44.7419H51.5998C51.1443 44.7419 50.694 44.7664 50.2501 44.8103C48.0566 42.3368 44.8862 40.871 41.583 40.871H39.6449C39.0759 40.609 38.4901 40.3419 37.8475 40.1445L32.9172 38.6284L32.9185 36.56C37.6179 34.5458 40.885 30.311 41.7288 25.3871H41.9662C44.7998 25.3871 47.1069 23.08 47.1069 20.2451C47.1069 17.3884 44.7908 15.0645 41.9443 15.0645H41.765C41.245 12.7148 39.5495 10.7548 37.1946 9.97031L35.4979 9.40385L35.4966 11.1935C35.4953 12.1019 34.9637 12.9135 34.1508 13.2813C33.8927 11.3368 32.7004 9.64514 30.9095 8.74966L30.0772 8.33418L27.752 10.6593L25.4256 8.33289L24.5933 8.74837C22.8024 9.64385 21.6101 11.3355 21.352 13.2787C20.5391 12.911 20.0088 12.0993 20.0075 11.1922L20.0062 9.40256L18.3095 9.96901C15.9546 10.7535 14.2591 12.7135 13.7391 15.0632H13.5598C10.7133 15.0645 8.39721 17.3884 8.39721 20.2451C8.39721 23.08 10.7043 25.3871 13.5585 25.3871H13.7779C14.6204 30.311 17.8875 34.5471 22.5869 36.56L22.5882 38.6284L17.6591 40.1458C10.5753 42.3239 5.81656 48.7664 5.81656 56.1768V58.9355H3.23592C1.81269 58.9355 0.655273 60.0929 0.655273 61.5161V64.0968C0.655273 64.569 0.792048 65.0064 1.01398 65.3871C0.792048 65.7677 0.655273 66.2052 0.655273 66.6774V69.2581C0.655273 69.7303 0.792048 70.1677 1.01398 70.5484C0.792048 70.929 0.655273 71.3664 0.655273 71.8387V74.4194C0.655273 75.8426 1.81269 77 3.23592 77H5.81656H13.5585H21.3004H31.623H46.8243H49.9198H59.7766H62.872H80.6553V74.4194H65.5327ZM44.5262 20.2451C44.5262 21.6568 43.3791 22.8039 41.9495 22.8064L41.9482 17.6451C43.3701 17.6477 44.5262 18.8116 44.5262 20.2451ZM10.9779 20.2451C10.9779 18.8129 12.1353 17.6477 13.5572 17.6464L13.5559 22.8077H13.5391C12.1275 22.8064 10.9779 21.6568 10.9779 20.2451V20.2451ZM68.1146 43.4516H69.0424C69.0424 45.2813 68.4837 47.0348 67.4591 48.5277C66.0488 47.1716 64.3469 46.1226 62.4566 45.4761C64.0501 44.1871 66.0514 43.4516 68.1146 43.4516V43.4516ZM41.583 43.4516C43.6462 43.4516 45.6488 44.1871 47.2411 45.4761C45.3508 46.1226 43.6488 47.1716 42.2385 48.5277C41.214 47.0361 40.6553 45.2813 40.6553 43.4516H41.583ZM34.1624 41.711L32.3366 48.4064L29.3843 44.7174L32.1133 41.0813L34.1624 41.711ZM16.1366 22.8619L16.1379 16.5639C16.1379 15.1884 16.7791 13.9264 17.823 13.1148C18.3598 14.3664 19.4101 15.3639 20.7598 15.8155L23.8811 16.8542V14.08C23.8811 13.098 24.2966 12.1922 25.005 11.5626L27.752 14.3084L30.5004 11.5613C31.2075 12.191 31.623 13.0968 31.623 14.0787V16.8529L34.7456 15.8129C36.0953 15.3626 37.1456 14.3651 37.6824 13.1135C38.7262 13.9251 39.3675 15.1858 39.3675 16.5626L39.3688 22.8606C39.3688 27.7974 36.4385 32.2426 31.9017 34.1871C30.9533 34.5922 30.3391 35.5213 30.3366 36.5574L30.3353 39.1458L27.752 42.5922L25.1701 39.151L25.1675 36.56C25.1675 35.5264 24.5533 34.5961 23.6037 34.1897C19.0669 32.2439 16.1353 27.7987 16.1366 22.8619V22.8619ZM23.392 41.0813L26.1198 44.7174L23.1675 48.4064L21.3417 41.7135L23.392 41.0813ZM31.623 69.2581H21.3004V66.6774H23.8811H31.623V69.2581ZM21.3004 64.0968H16.1391V61.5161H23.8811V64.0968H21.3004ZM3.23592 66.6774H13.5585V69.2581H3.23592V66.6774ZM13.5585 56.3548H23.8811V58.9355H14.8488H13.5585V56.3548ZM13.5585 53.7742V51.1935H23.8811V53.7742H13.5585ZM8.39721 56.1768C8.39721 49.9071 12.4243 44.4555 18.4179 42.6116L18.8746 42.471L20.5495 48.6129H13.5585C12.1353 48.6129 10.9779 49.7703 10.9779 51.1935V53.7742C10.9779 54.2464 11.1146 54.6839 11.3366 55.0645C11.1146 55.4452 10.9779 55.8826 10.9779 56.3548V58.9355H8.39721V56.1768ZM3.23592 61.5161H13.5585V64.0968H3.23592V61.5161ZM5.81656 74.4194H3.23592V71.8387H13.5585V74.4194H5.81656ZM16.1391 74.4194V71.8387C16.1391 71.3664 16.0024 70.929 15.7804 70.5484C16.0024 70.1677 16.1391 69.7303 16.1391 69.2581V66.6774H18.7198V69.2581C18.7198 69.7303 18.8566 70.1677 19.0785 70.5484C18.8566 70.929 18.7198 71.3664 18.7198 71.8387V74.4194H16.1391ZM21.3004 74.4194V71.8387H31.623V74.4194H21.3004ZM33.845 70.5484C34.0669 70.1677 34.2037 69.7303 34.2037 69.2581V66.6774C34.2037 65.2542 33.0462 64.0968 31.623 64.0968H26.4617V61.5161C26.4617 61.0439 26.325 60.6064 26.103 60.2258C26.325 59.8452 26.4617 59.4077 26.4617 58.9355V56.3548C26.4617 55.8826 26.325 55.4452 26.103 55.0645C26.325 54.6839 26.4617 54.2464 26.4617 53.7742V51.1935C26.4617 50.4813 26.1714 49.8361 25.703 49.369L27.752 46.8077L33.4901 53.9819L36.6295 42.4722L37.0862 42.6129C37.4101 42.7122 37.7417 42.8503 38.0746 42.9961V43.4516C38.0746 46.04 38.9379 48.5097 40.5146 50.5393C38.9817 52.7329 38.0746 55.3948 38.0746 58.2671C38.0746 60.6155 38.6914 62.9368 39.8566 64.9768L42.5688 69.7226C43.0656 70.5935 43.4424 71.5264 43.6849 72.4968L44.165 74.4194H34.2037V71.8387C34.2037 71.3664 34.0669 70.929 33.845 70.5484ZM54.8488 71.8387C55.4888 71.8387 56.0656 71.7729 56.5959 71.6684L57.1456 74.4194H52.552L53.1017 71.6684C53.6308 71.7729 54.2088 71.8387 54.8488 71.8387ZM59.7766 74.4194L59.0372 70.7174C60.5133 69.7948 61.1249 68.6258 61.1649 68.5445L58.8656 67.3742C58.823 67.4516 57.8153 69.2581 54.8488 69.2581C51.8824 69.2581 50.8746 67.4516 50.8333 67.3742L48.534 68.5445C48.574 68.6258 49.1856 69.7948 50.6617 70.7174L49.9211 74.4194H46.8243L46.1882 71.871C45.8888 70.671 45.4243 69.5174 44.8101 68.4426L42.0979 63.6968C41.1546 62.0464 40.6553 60.1677 40.6553 58.2658C40.6553 52.2322 45.5649 47.3226 51.5985 47.3226H58.0979C64.1327 47.3226 69.0424 52.2335 69.0424 58.2671C69.0424 60.169 68.543 62.0464 67.6011 63.6968L64.8888 68.4426C64.2733 69.5174 63.8101 70.6723 63.5108 71.8723L62.8733 74.4194H59.7766Z" fill="#464045"/>
<path d="M54.8489 53.7742C49.7844 53.7742 45.8167 56.6077 45.8167 60.2258C45.8167 63.8439 49.7844 66.6774 54.8489 66.6774C59.9134 66.6774 63.8811 63.8439 63.8811 60.2258C63.8811 56.6077 59.9134 53.7742 54.8489 53.7742ZM54.8489 64.0968C51.3521 64.0968 48.3973 62.3239 48.3973 60.2258C48.3973 58.1277 51.3521 56.3548 54.8489 56.3548C58.3457 56.3548 61.3005 58.1277 61.3005 60.2258C61.3005 62.3239 58.3457 64.0968 54.8489 64.0968Z" fill="#464045"/>
<path d="M52.2681 61.5162C52.9807 61.5162 53.5584 60.9385 53.5584 60.2259C53.5584 59.5132 52.9807 58.9355 52.2681 58.9355C51.5555 58.9355 50.9778 59.5132 50.9778 60.2259C50.9778 60.9385 51.5555 61.5162 52.2681 61.5162Z" fill="#464045"/>
<path d="M48.3973 52.4838C49.1099 52.4838 49.6876 51.9061 49.6876 51.1935C49.6876 50.4809 49.1099 49.9032 48.3973 49.9032C47.6846 49.9032 47.1069 50.4809 47.1069 51.1935C47.1069 51.9061 47.6846 52.4838 48.3973 52.4838Z" fill="#464045"/>
<path d="M57.4295 61.5162C58.1421 61.5162 58.7198 60.9385 58.7198 60.2259C58.7198 59.5132 58.1421 58.9355 57.4295 58.9355C56.7169 58.9355 56.1392 59.5132 56.1392 60.2259C56.1392 60.9385 56.7169 61.5162 57.4295 61.5162Z" fill="#464045"/>
<path d="M61.3003 52.4838C62.013 52.4838 62.5907 51.9061 62.5907 51.1935C62.5907 50.4809 62.013 49.9032 61.3003 49.9032C60.5877 49.9032 60.01 50.4809 60.01 51.1935C60.01 51.9061 60.5877 52.4838 61.3003 52.4838Z" fill="#464045"/>
<path d="M34.2037 20.2259C34.9163 20.2259 35.494 19.6482 35.494 18.9356C35.494 18.223 34.9163 17.6453 34.2037 17.6453C33.491 17.6453 32.9133 18.223 32.9133 18.9356C32.9133 19.6482 33.491 20.2259 34.2037 20.2259Z" fill="#464045"/>
<path d="M21.3006 20.2259C22.0132 20.2259 22.5909 19.6482 22.5909 18.9356C22.5909 18.223 22.0132 17.6453 21.3006 17.6453C20.588 17.6453 20.0103 18.223 20.0103 18.9356C20.0103 19.6482 20.588 20.2259 21.3006 20.2259Z" fill="#464045"/>
<path d="M27.7508 33.1291C29.8347 33.1291 31.7082 31.9717 32.6399 30.1072L32.7753 29.8349L30.467 28.6801L30.3315 28.9523C29.8399 29.9368 28.8515 30.5472 27.7508 30.5472C26.6502 30.5472 25.6631 29.9355 25.1702 28.9523L25.0347 28.6801L22.7263 29.8349L22.8618 30.1072C23.7947 31.9717 25.6683 33.1291 27.7508 33.1291Z" fill="#464045"/>
<path d="M27.0371 27.8324L28.4629 27.1188C29.0797 26.8105 29.539 26.2814 29.7571 25.6272C29.9752 24.973 29.9261 24.2724 29.6177 23.6569L29.041 22.5021V20.226H26.4603V22.8066C26.4603 23.0066 26.5068 23.2053 26.5958 23.3834L27.3093 24.8092L25.8835 25.5227L27.0371 27.8324Z" fill="#464045"/>
<path d="M71.6191 13.7742H69.0385C68.3262 13.7742 67.7481 13.1961 67.7481 12.4839H65.1675C65.1675 14.6181 66.9043 16.3548 69.0385 16.3548V18.9355H71.6191V16.3548C73.7533 16.3548 75.4901 14.6181 75.4901 12.4839C75.4901 10.3497 73.7533 8.61291 71.6191 8.61291H69.0385C68.3262 8.61291 67.7481 8.03484 67.7481 7.32258C67.7481 6.61033 68.3262 6.03226 69.0385 6.03226H71.6191C72.3314 6.03226 72.9094 6.61033 72.9094 7.32258H75.4901C75.4901 5.18839 73.7533 3.45162 71.6191 3.45162V0.870972H69.0385V3.45162C66.9043 3.45162 65.1675 5.18839 65.1675 7.32258C65.1675 9.45678 66.9043 11.1936 69.0385 11.1936H71.6191C72.3314 11.1936 72.9094 11.7716 72.9094 12.4839C72.9094 13.1961 72.3314 13.7742 71.6191 13.7742Z" fill="#464045"/>
<path d="M53.5586 12.4839H56.1393V15.0645H53.5586V12.4839Z" fill="#464045"/>
<path d="M53.5586 17.6453H56.1393V20.2259H53.5586V17.6453Z" fill="#464045"/>
<path d="M56.1392 15.0646H58.7198V17.6452H56.1392V15.0646Z" fill="#464045"/>
<path d="M50.9778 15.0646H53.5584V17.6452H50.9778V15.0646Z" fill="#464045"/>
<path d="M69.0422 25.3871H71.6229V27.9677H69.0422V25.3871Z" fill="#464045"/>
<path d="M69.0422 30.5483H71.6229V33.129H69.0422V30.5483Z" fill="#464045"/>
<path d="M71.623 27.9677H74.2037V30.5483H71.623V27.9677Z" fill="#464045"/>
<path d="M66.4617 27.9677H69.0423V30.5483H66.4617V27.9677Z" fill="#464045"/>
<path d="M5.81665 29.2581H8.3973V31.8387H5.81665V29.2581Z" fill="#464045"/>
<path d="M5.81665 34.4193H8.3973V37H5.81665V34.4193Z" fill="#464045"/>
<path d="M8.39722 31.8386H10.9779V34.4193H8.39722V31.8386Z" fill="#464045"/>
<path d="M3.23584 31.8386H5.81648V34.4193H3.23584V31.8386Z" fill="#464045"/>
<path d="M53.5586 31.8386H56.1393V34.4193H53.5586V31.8386Z" fill="#464045"/>
<path d="M53.5586 37H56.1393V39.5807H53.5586V37Z" fill="#464045"/>
<path d="M56.1392 34.4193H58.7198V37H56.1392V34.4193Z" fill="#464045"/>
<path d="M50.9778 34.4193H53.5584V37H50.9778V34.4193Z" fill="#464045"/>
</svg>
