<svg xmlns="http://www.w3.org/2000/svg" width="81" height="80" fill="none"><g clip-path="url(#a)"><path fill="#FCC53B" d="M7.107 40a3.871 3.871 0 1 0 0-7.742 3.871 3.871 0 0 0 0 7.742ZM54.849 42.58a3.871 3.871 0 1 0 0-7.741 3.871 3.871 0 0 0 0 7.742ZM70.333 36.129a3.871 3.871 0 1 0 0-7.742 3.871 3.871 0 0 0 0 7.742ZM54.849 23.226a3.871 3.871 0 1 0 0-7.742 3.871 3.871 0 0 0 0 7.742ZM10.254 21.243a3.853 3.853 0 0 1 3.307-1.888h1.303a5.653 5.653 0 0 1 3.856-5.162 3.58 3.58 0 0 0 2.449 3.397l1.422.474v-.985c0-1.768.998-3.385 2.58-4.176l2.581 2.58 2.58-2.58a4.669 4.669 0 0 1 2.581 4.176v.985l1.424-.474a3.582 3.582 0 0 0 2.449-3.396 5.654 5.654 0 0 1 3.854 5.16h1.303c1.408 0 2.628.76 3.307 1.889l.231-.413a12.815 12.815 0 0 0-1.457-14.58l-1.638-1.915A12.402 12.402 0 0 0 32.958 0c-1.79 0-3.583.396-5.206 1.146a12.402 12.402 0 0 0-14.632 3.19l-1.639 1.91a12.826 12.826 0 0 0-3.084 8.338c0 2.181.563 4.34 1.626 6.244l.231.415Z"/><path fill="#464045" d="m65.533 77.42.48-1.92a10.94 10.94 0 0 1 1.116-2.776l2.712-4.746a13.558 13.558 0 0 0 1.782-6.712 13.44 13.44 0 0 0-2.44-7.727 11.51 11.51 0 0 0 2.44-7.087V43.87h-3.508c-3.304 0-6.474 1.466-8.666 3.94a13.71 13.71 0 0 0-1.35-.07h-6.5c-.455 0-.905.025-1.349.07-2.193-2.474-5.364-3.94-8.667-3.94h-1.938c-.57-.262-1.155-.53-1.798-.727l-4.93-1.516.002-2.068a14.88 14.88 0 0 0 8.81-11.173h.237a5.148 5.148 0 0 0 5.14-5.142c0-2.857-2.315-5.18-5.162-5.18h-.18a6.927 6.927 0 0 0-4.57-5.095l-1.696-.566-.001 1.79a2.292 2.292 0 0 1-1.346 2.087 5.92 5.92 0 0 0-3.242-4.531l-.832-.416-2.325 2.325-2.326-2.326-.833.415a5.92 5.92 0 0 0-3.241 4.53 2.29 2.29 0 0 1-1.345-2.086v-1.79l-1.698.567a6.928 6.928 0 0 0-4.57 5.094h-.18c-2.846.002-5.162 2.325-5.162 5.182 0 2.835 2.307 5.142 5.162 5.142h.219a14.873 14.873 0 0 0 8.809 11.173l.001 2.068-4.929 1.518c-7.084 2.178-11.842 8.62-11.842 16.03v2.76H3.236a2.583 2.583 0 0 0-2.58 2.58v2.58c0 .473.136.91.358 1.291-.222.38-.359.818-.359 1.29v2.581c0 .472.137.91.359 1.29-.222.381-.359.818-.359 1.29v2.581A2.583 2.583 0 0 0 3.235 80h77.42v-2.58H65.533ZM44.526 23.244a2.568 2.568 0 0 1-2.577 2.561v-5.16a2.594 2.594 0 0 1 2.577 2.6Zm-33.548 0a2.594 2.594 0 0 1 2.58-2.599l-.002 5.162h-.017a2.567 2.567 0 0 1-2.561-2.563Zm57.137 23.207h.927c0 1.83-.558 3.583-1.583 5.076a13.535 13.535 0 0 0-5.002-3.052 9.031 9.031 0 0 1 5.658-2.024Zm-26.532 0a9.03 9.03 0 0 1 5.658 2.024 13.536 13.536 0 0 0-5.002 3.052 8.939 8.939 0 0 1-1.584-5.076h.928Zm-7.42-1.741-1.826 6.695-2.953-3.689 2.73-3.636 2.048.63Zm-18.026-18.85v-6.297c0-1.376.642-2.638 1.686-3.45a4.871 4.871 0 0 0 2.937 2.701l3.121 1.04V17.08c0-.982.416-1.888 1.124-2.517l2.747 2.745 2.748-2.747a3.357 3.357 0 0 1 1.123 2.518v2.774l3.123-1.04a4.866 4.866 0 0 0 2.936-2.7 4.364 4.364 0 0 1 1.685 3.45l.002 6.298c0 4.936-2.93 9.382-7.467 11.326a2.578 2.578 0 0 0-1.565 2.37l-.002 2.589-2.583 3.446-2.582-3.441-.003-2.591a2.575 2.575 0 0 0-1.563-2.37 12.308 12.308 0 0 1-7.467-11.328Zm7.255 18.22 2.728 3.636-2.953 3.69-1.825-6.693 2.05-.633Zm8.231 28.177H21.3v-2.58h10.323v2.58ZM21.3 67.097h-5.16v-2.58h7.741v2.58h-2.58Zm-18.064 2.58h10.322v2.581H3.237v-2.58Zm10.322-10.322h10.323v2.58H13.56v-2.58Zm0-2.58v-2.581h10.323v2.58H13.56Zm-5.16 2.402c0-6.27 4.026-11.721 10.02-13.565l.457-.141 1.674 6.142h-6.99a2.583 2.583 0 0 0-2.581 2.58v2.581c0 .472.137.91.359 1.29-.222.381-.36.819-.36 1.29v2.581h-2.58v-2.758Zm-5.162 5.34h10.322v2.58H3.237v-2.58Zm2.58 12.902h-2.58v-2.58h10.322v2.58H5.818Zm10.323 0v-2.58c0-.473-.137-.91-.359-1.29.222-.381.36-.819.36-1.29v-2.582h2.58v2.581c0 .472.137.91.358 1.29-.221.381-.358.818-.358 1.29v2.581h-2.58Zm5.161 0v-2.58h10.323v2.58H21.3Zm12.545-3.87c.222-.381.359-.819.359-1.29v-2.582a2.583 2.583 0 0 0-2.581-2.58h-5.161v-2.58c0-.473-.137-.91-.359-1.291.222-.38.359-.818.359-1.29v-2.581c0-.472-.137-.91-.359-1.29.222-.381.359-.819.359-1.29v-2.581a2.57 2.57 0 0 0-.759-1.825l2.049-2.561 5.738 7.174 3.14-11.51.456.14c.324.1.656.238.989.384v.456c0 2.588.863 5.058 2.44 7.087a13.448 13.448 0 0 0-2.44 7.728c0 2.348.616 4.67 1.782 6.71l2.712 4.746c.497.87.873 1.803 1.116 2.774l.48 1.922h-9.961v-2.58c0-.473-.137-.91-.359-1.29Zm21.004 1.29c.64 0 1.217-.066 1.747-.17l.55 2.75h-4.594l.55-2.75c.529.104 1.107.17 1.747.17Zm4.928 2.58-.74-3.702c1.476-.922 2.088-2.091 2.128-2.172l-2.3-1.17c-.042.077-1.05 1.883-4.016 1.883-2.967 0-3.974-1.806-4.016-1.884l-2.299 1.17c.04.082.652 1.25 2.128 2.173l-.74 3.702h-3.098l-.636-2.548c-.3-1.2-.764-2.354-1.378-3.428l-2.712-4.746a10.965 10.965 0 0 1-1.443-5.431c0-6.034 4.91-10.943 10.944-10.943h6.499c6.035 0 10.944 4.91 10.944 10.944 0 1.902-.499 3.78-1.44 5.43l-2.713 4.746a13.454 13.454 0 0 0-1.378 3.43l-.638 2.546h-3.096Z"/><path fill="#464045" d="M54.849 56.774c-5.065 0-9.032 2.834-9.032 6.452s3.967 6.451 9.032 6.451c5.064 0 9.032-2.833 9.032-6.451 0-3.618-3.968-6.452-9.032-6.452Zm0 10.323c-3.497 0-6.452-1.773-6.452-3.871s2.955-3.871 6.452-3.871 6.452 1.773 6.452 3.87c0 2.099-2.955 3.872-6.452 3.872Z"/><path fill="#464045" d="M52.268 64.516a1.29 1.29 0 1 0 0-2.58 1.29 1.29 0 0 0 0 2.58ZM48.397 55.484a1.29 1.29 0 1 0 0-2.58 1.29 1.29 0 0 0 0 2.58ZM57.43 64.516a1.29 1.29 0 1 0 0-2.58 1.29 1.29 0 0 0 0 2.58ZM61.3 55.484a1.29 1.29 0 1 0 0-2.58 1.29 1.29 0 0 0 0 2.58ZM34.204 23.226a1.29 1.29 0 1 0 0-2.58 1.29 1.29 0 0 0 0 2.58ZM21.3 23.226a1.29 1.29 0 1 0 0-2.58 1.29 1.29 0 0 0 0 2.58ZM27.75 36.13a5.435 5.435 0 0 0 4.89-3.023l.135-.272-2.308-1.155-.136.272a2.867 2.867 0 0 1-2.58 1.595 2.87 2.87 0 0 1-2.58-1.595l-.136-.272-2.309 1.155.136.272a5.438 5.438 0 0 0 4.889 3.022ZM27.037 30.832l1.426-.713a2.562 2.562 0 0 0 1.294-1.492 2.562 2.562 0 0 0-.14-1.97l-.576-1.155v-2.276h-2.58v2.58c0 .2.046.4.135.577l.713 1.426-1.425.714 1.153 2.31ZM71.62 16.774h-2.582a1.29 1.29 0 0 1-1.29-1.29h-2.58a3.876 3.876 0 0 0 3.87 3.87v2.582h2.581v-2.581a3.876 3.876 0 0 0 3.871-3.871 3.876 3.876 0 0 0-3.87-3.871h-2.582a1.29 1.29 0 0 1 0-2.58h2.581c.712 0 1.29.577 1.29 1.29h2.581a3.876 3.876 0 0 0-3.87-3.871V3.87h-2.582v2.58a3.876 3.876 0 0 0-3.87 3.872 3.876 3.876 0 0 0 3.87 3.87h2.581a1.29 1.29 0 0 1 0 2.581ZM53.559 15.484h2.58v2.58h-2.58v-2.58ZM53.559 20.645h2.58v2.58h-2.58v-2.58ZM56.14 18.065h2.58v2.58h-2.58v-2.58ZM50.978 18.065h2.58v2.58h-2.58v-2.58ZM69.042 28.387h2.58v2.58h-2.58v-2.58ZM69.042 33.548h2.58v2.581h-2.58v-2.58ZM71.623 30.968h2.58v2.58h-2.58v-2.58ZM66.462 30.968h2.58v2.58h-2.58v-2.58ZM5.817 32.258h2.58v2.58h-2.58v-2.58ZM5.817 37.42h2.58V40h-2.58v-2.58ZM8.397 34.839h2.58v2.58h-2.58v-2.58ZM3.236 34.839h2.58v2.58h-2.58v-2.58ZM53.559 34.839h2.58v2.58h-2.58v-2.58ZM53.559 40h2.58v2.58h-2.58V40ZM56.14 37.42h2.58V40h-2.58v-2.58ZM50.978 37.42h2.58V40h-2.58v-2.58Z"/></g><defs><clipPath id="a"><path fill="#fff" d="M.655 0h80v80h-80z"/></clipPath></defs></svg>