<svg xmlns="http://www.w3.org/2000/svg" width="81" height="80" fill="none"><g clip-path="url(#a)"><path fill="#FCC53B" d="M60.54 72.762c6.113 0 11.07-5.055 11.07-11.292 0-6.236-4.957-11.291-11.07-11.291S49.471 55.234 49.471 61.47c0 6.237 4.956 11.292 11.07 11.292ZM5.196 47.67h27.057V58.96H5.196V47.67Z"/><path fill="#464045" d="m12.38 72.653-1.124-2.866a1.23 1.23 0 0 0-1.14-.789c-.504 0-.955.312-1.143.788L7.848 72.65l-1.47-5.254-2.366.69 2.46 8.782c.144.516.594.881 1.12.909.537.038 1.01-.289 1.205-.787l1.318-3.361 1.317 3.361c.188.478.641.788 1.142.788l.064-.001a1.233 1.233 0 0 0 1.119-.909l2.46-8.782-2.365-.69-1.471 5.256ZM25.91 72.653l-1.125-2.866A1.232 1.232 0 0 0 23.643 69c-.503 0-.955.313-1.143.788l-1.124 2.866-1.47-5.255-2.366.69L20 76.871c.144.515.594.88 1.119.908.546.039 1.01-.289 1.205-.787l1.32-3.362 1.317 3.361c.188.478.64.788 1.142.788l.063-.001a1.233 1.233 0 0 0 1.12-.909l2.46-8.782-2.366-.69-1.47 5.256ZM39.438 72.653l-1.124-2.866A1.232 1.232 0 0 0 37.172 69c-.503 0-.955.313-1.143.788l-1.124 2.866-1.471-5.255-2.365.69 2.46 8.783c.143.515.594.88 1.119.908.54.039 1.01-.289 1.205-.787l1.32-3.362 1.317 3.361c.188.478.64.788 1.141.788l.064-.001a1.233 1.233 0 0 0 1.12-.909l2.46-8.782-2.366-.69-1.47 5.256ZM26.165 12.604l1.74 1.774a6.072 6.072 0 0 1 8.696 0l1.739-1.774a8.5 8.5 0 0 0-12.175 0Z"/><path fill="#464045" d="M60.54 45.16c-.415 0-.822.032-1.23.065V17.559H35.716c-.509-1.456-1.862-2.509-3.463-2.509s-2.954 1.053-3.463 2.51H.276v47.674h44.722c1.673 7.182 7.997 12.546 15.542 12.546 8.816 0 15.989-7.317 15.989-16.31 0-8.992-7.173-16.31-15.989-16.31Zm0 30.111c-1.322 0-2.73-1.916-3.7-5.018h7.401c-.97 3.102-2.379 5.018-3.7 5.018Zm-4.328-7.528a31.713 31.713 0 0 1-.565-5.018h9.787a31.855 31.855 0 0 1-.566 5.018h-8.656Zm-9.138-5.018h6.114c.057 1.78.226 3.467.503 5.018h-5.186a13.879 13.879 0 0 1-1.43-5.018Zm17.167-10.037H56.84c.97-3.102 2.38-5.018 3.7-5.018 1.321 0 2.73 1.916 3.701 5.018Zm.627 2.51c.3 1.516.502 3.202.566 5.018h-9.787c.064-1.816.267-3.502.565-5.019h8.656Zm-10.606-2.51h-4.15a13.576 13.576 0 0 1 5.86-4.191c-.68 1.153-1.258 2.566-1.71 4.191Zm-5.757 2.51h5.186a34.913 34.913 0 0 0-.503 5.018h-6.114c.159-1.796.66-3.487 1.43-5.019Zm19.388 7.527h6.113a13.88 13.88 0 0 1-1.431 5.018h-5.187a34.72 34.72 0 0 0 .505-5.018Zm0-2.51a35.085 35.085 0 0 0-.503-5.018h5.186a13.907 13.907 0 0 1 1.432 5.019h-6.115Zm3.076-7.527h-4.15c-.453-1.625-1.03-3.038-1.71-4.191a13.58 13.58 0 0 1 5.86 4.191ZM32.253 17.56c.678 0 1.23.564 1.23 1.255s-.552 1.255-1.23 1.255c-.678 0-1.23-.564-1.23-1.255s.552-1.255 1.23-1.255Zm-3.463 2.51c.509 1.456 1.862 2.509 3.463 2.509s2.954-1.053 3.463-2.51h21.135v7.528H2.736V20.07H28.79ZM2.736 62.725v-32.62H56.85v15.511c-7.04 1.706-12.3 8.157-12.3 15.854 0 .425.032.84.064 1.255H2.735Zm47.376 7.528h4.15c.452 1.624 1.03 3.038 1.71 4.191a13.589 13.589 0 0 1-5.86-4.191Zm14.996 4.191c.68-1.153 1.258-2.567 1.71-4.191h4.15a13.589 13.589 0 0 1-5.86 4.191Z"/><path fill="#464045" d="M15.035 22.578h2.46v2.51h-2.46v-2.51ZM10.115 22.578h2.46v2.51h-2.46v-2.51ZM5.196 22.578h2.46v2.51h-2.46v-2.51ZM41.819 9.056a13.357 13.357 0 0 0-19.133 0l1.739 1.774a10.93 10.93 0 0 1 15.655 0l1.739-1.774Z"/><path fill="#464045" d="m43.558 7.282 1.74-1.774a18.211 18.211 0 0 0-26.09 0l1.739 1.774a15.784 15.784 0 0 1 22.611 0ZM19.954 32.615H5.196V45.16h14.758V32.615Zm-2.46 10.036H7.655v-7.527h9.84v7.527ZM22.414 45.16h14.759V32.616H22.414V45.16Zm2.46-10.036h9.839v7.527h-9.84v-7.527ZM54.39 32.615H39.633V45.16h14.759V32.615ZM51.932 42.65h-9.839v-7.527h9.84v7.527ZM5.196 47.67h2.46v2.509h-2.46v-2.51ZM10.115 47.67h27.058v2.509H10.115v-2.51ZM5.196 52.688h27.057v2.51H5.196v-2.51ZM5.196 57.706h27.057v2.51H5.196v-2.51Z"/></g><defs><clipPath id="a"><path fill="#fff" d="M.276 0h80v80h-80z"/></clipPath></defs></svg>