<svg xmlns="http://www.w3.org/2000/svg" width="81" height="80" fill="none"><g clip-path="url(#a)"><path fill="#FCC53B" d="M57.43 24.516a9.032 9.032 0 1 0 0-18.064 9.032 9.032 0 0 0 0 18.064Z"/><path fill="#464045" d="M75.494 67.097v-37.42c0-3.032-2.111-5.566-4.936-6.253.424-.95.833-1.904 1.224-2.87l.051-.127a14.683 14.683 0 0 0 1.08-5.534C72.913 6.68 66.153 0 57.843 0h-.826c-8.31 0-15.071 6.681-15.071 14.893 0 1.904.364 3.766 1.08 5.538l.05.124c.364.898.747 1.787 1.14 2.672h-8.92l1.406-8.43a6.064 6.064 0 0 0-5.974-7.055H6.712a6.064 6.064 0 0 0-5.974 7.053l1.851 11.11a6.023 6.023 0 0 0 3.228 4.387v36.805H.655v3.87C.655 75.949 4.707 80 9.688 80h61.935c4.98 0 9.032-4.052 9.032-9.032v-3.871h-5.161ZM57.017 2.58h.825c6.888 0 12.49 5.522 12.49 12.312 0 1.57-.299 3.107-.89 4.565l-.051.128a89.711 89.711 0 0 1-11.962 20.9 89.744 89.744 0 0 1-11.962-20.901l-.05-.124a12.123 12.123 0 0 1-.89-4.568c0-6.79 5.602-12.312 12.49-12.312Zm10.735 28.387v7.655c-1.174-.775-2.707-1.409-4.531-1.844a92.105 92.105 0 0 0 3.543-5.811h.988ZM18.72 23.226a3.876 3.876 0 0 1 3.87 3.87v5.918c0 .436-.604.685-.912.378l-5.005-5.005H14.85v-1.29a3.876 3.876 0 0 1 3.87-3.871Zm-2.58-5.162a2.583 2.583 0 0 1 2.58-2.58 2.583 2.583 0 0 1 2.58 2.58 2.583 2.583 0 0 1-2.58 2.581 2.583 2.583 0 0 1-2.58-2.58Zm-.535 12.904 4.249 4.249c.588.588 1.37.912 2.203.912a3.118 3.118 0 0 0 3.114-3.115v-2.046H33.67l-20.11 20.11v-20.11h2.046Zm36.034 5.811c-4.046.965-6.682 2.897-7.062 5.217l-13.6 13.599-9.142-9.143 15.483-15.484h10.777a92.105 92.105 0 0 0 3.544 5.811Zm9.997 2.32c3.832.71 6.116 2.275 6.116 3.482 0 1.578-4.022 3.87-10.322 3.87-6.301 0-10.323-2.292-10.323-3.87 0-1.207 2.284-2.772 6.116-3.483a92.592 92.592 0 0 0 3.197 4.287l1.01 1.267 1.008-1.267a93.24 93.24 0 0 0 3.198-4.287ZM13.558 54.727l6.452-6.452 13.66 13.66H13.558v-7.208Zm23.76 7.207-4.516-4.516 12.53-12.529c1.781 2.467 6.388 4.142 12.097 4.142 4.322 0 8.008-.961 10.323-2.498v15.401H37.32Zm8.093-36.129c.417.867.848 1.727 1.292 2.581H33.814a6.02 6.02 0 0 0 1.036-2.48l.017-.1H45.41ZM3.284 14.37a3.48 3.48 0 0 1 3.428-4.046h24.014a3.48 3.48 0 0 1 3.43 4.047l-1.852 11.111a3.465 3.465 0 0 1-3.428 2.906H25.17v-1.29a6.448 6.448 0 0 0-2.847-5.349 5.138 5.138 0 0 0 1.557-3.684 5.167 5.167 0 0 0-5.161-5.16 5.167 5.167 0 0 0-5.161 5.16c0 1.444.598 2.746 1.557 3.684a6.448 6.448 0 0 0-2.848 5.349v1.29H8.564a3.466 3.466 0 0 1-3.43-2.904l-1.85-11.114Zm5.113 16.583c.057.003.11.016.167.016h2.414v30.967a2.583 2.583 0 0 0 2.58 2.581h54.194a2.583 2.583 0 0 0 2.58-2.58V30.967a2.577 2.577 0 0 0-2.195-2.542c.444-.854.876-1.712 1.293-2.58 1.95.197 3.483 1.829 3.483 3.831v37.42H8.397V30.952Zm23.226 38.725h18.065v1.29c0 .712-.58 1.291-1.29 1.291H32.912c-.71 0-1.29-.58-1.29-1.29v-1.29Zm46.452 1.29a6.459 6.459 0 0 1-6.452 6.452H9.688a6.459 6.459 0 0 1-6.452-6.451v-1.29h25.806v1.29a3.876 3.876 0 0 0 3.871 3.87h15.484a3.876 3.876 0 0 0 3.871-3.87v-1.29h25.807v1.29Z"/><path fill="#464045" d="M71.623 74.839a1.29 1.29 0 1 0 0-2.58 1.29 1.29 0 0 0 0 2.58ZM66.462 74.839a1.29 1.29 0 1 0 0-2.58 1.29 1.29 0 0 0 0 2.58ZM57.43 25.807c5.691 0 10.322-4.631 10.322-10.323S63.121 5.161 57.429 5.161c-5.691 0-10.322 4.631-10.322 10.323s4.63 10.323 10.322 10.323Zm-6.695-6.452h1.883c.182.973.436 1.888.758 2.712a7.772 7.772 0 0 1-2.64-2.712Zm-1.047-3.871c0-.44.045-.87.116-1.29h2.505c-.024.428-.04.859-.04 1.29 0 .431.016.862.042 1.29h-2.507c-.071-.42-.117-.85-.117-1.29Zm7.741-7.742c.629 0 1.608 1.426 2.162 3.871h-4.322c.553-2.445 1.532-3.871 2.16-3.871Zm2.526 6.452c.027.418.055.837.055 1.29 0 .453-.028.872-.055 1.29h-5.05c-.028-.418-.056-.837-.056-1.29 0-.453.028-.872.055-1.29h5.05Zm5.216 1.29c0 .44-.045.87-.116 1.29H62.55c.025-.428.042-.859.042-1.29 0-.431-.017-.862-.043-1.29h2.506c.072.42.117.85.117 1.29Zm-7.742 7.742c-.628 0-1.607-1.426-2.16-3.871h4.32c-.552 2.445-1.531 3.87-2.16 3.87Zm4.055-1.159c.32-.824.576-1.74.758-2.712h1.883a7.793 7.793 0 0 1-2.641 2.712Zm2.64-10.454H62.24a15.09 15.09 0 0 0-.759-2.712 7.771 7.771 0 0 1 2.642 2.712ZM53.375 8.901c-.321.824-.575 1.74-.757 2.712h-1.883a7.78 7.78 0 0 1 2.64-2.712ZM53.559 28.387h2.58v2.58h-2.58v-2.58ZM58.72 28.387h2.58v2.58h-2.58v-2.58Z"/></g><defs><clipPath id="a"><path fill="#fff" d="M.655 0h80v80h-80z"/></clipPath></defs></svg>