<svg width="81" height="80" viewBox="0 0 81 80" fill="none" xmlns="http://www.w3.org/2000/svg">
<g clip-path="url(#clip0_1_128)">
<path d="M66.1191 16.7743H60.1023C55.0107 16.7743 50.221 19.4865 47.6017 23.8517L46.7062 25.3446L51.9965 26.6672L50.4907 29.6775H56.8081C57.2546 28.9097 58.0778 28.3872 59.0313 28.3872H66.7733C68.1991 28.3872 69.3539 29.542 69.3539 30.9678V33.5485C70.7797 33.5485 71.9345 34.7033 71.9345 36.1291C71.9345 37.5549 70.7797 38.7098 69.3539 38.7098V46.6039L72.7591 44.902C77.8197 42.3691 80.9655 37.2814 80.9655 31.6207C80.9655 23.4349 74.3049 16.7743 66.1191 16.7743Z" fill="#FCC53B"/>
<path d="M70.6431 47.169V39.7781C72.1451 39.2452 73.2238 37.8103 73.2238 36.1277C73.2238 34.4452 72.1451 33.0103 70.6431 32.4774V30.9677C70.6431 28.8335 68.9063 27.0968 66.7721 27.0968H59.0302C56.896 27.0968 55.1592 28.8335 55.1592 30.9677V37.4194C55.1592 40.9768 58.0534 43.871 61.6109 43.871H62.9012V46.4516H52.0715L39.9528 23.2258H48.0354C48.6767 22.2748 49.4147 21.4077 50.2483 20.6452H38.5838C37.7321 19.1548 36.438 18.0181 34.9076 17.3768C34.6676 16.7729 34.5141 16.1445 34.5141 15.4839C34.5141 12.64 36.8251 10.3265 39.6702 10.3265H39.678C39.7644 10.3381 39.8509 10.3497 39.9412 10.3535L40.9967 10.4077L41.2573 9.38323C42.2741 5.37806 45.8689 2.58065 49.998 2.58065C54.3296 2.58065 58.0586 5.6671 58.8651 9.92L59.1773 11.5665L60.6896 10.8439C61.4109 10.4981 62.1554 10.3226 62.9012 10.3226C65.7476 10.3226 68.0625 12.6374 68.0625 15.4839C68.0625 15.9665 67.976 16.431 67.8483 16.8839C68.7218 16.9858 69.5734 17.1613 70.3954 17.409C70.5541 16.7845 70.6431 16.1432 70.6431 15.4839C70.6431 11.2142 67.1709 7.74194 62.9012 7.74194C62.2689 7.74194 61.6418 7.82323 61.0251 7.98323C59.4831 3.28 55.0599 0 49.998 0C45.0315 0 40.6663 3.14581 39.0509 7.76774C36.0792 8.00645 33.5773 9.92903 32.5012 12.5794C30.7696 11.911 29.5231 10.3265 29.3502 8.41032C29.3128 7.99226 29.0689 7.62065 28.7063 7.41032C28.3412 7.2 27.8947 7.18194 27.5141 7.35871C25.3438 8.36387 22.7605 7.67355 21.3941 5.73677C21.158 5.38323 20.7605 5.17161 20.3347 5.16645C19.8792 5.13935 19.5063 5.36903 19.2612 5.71613C17.8805 7.67484 15.2999 8.36387 13.0844 7.34065C12.7051 7.17677 12.2689 7.20516 11.9141 7.41677C11.5592 7.62968 11.327 7.99742 11.2909 8.41032C11.0767 10.8 9.18505 12.6903 6.79409 12.9058C6.37602 12.9432 6.00441 13.1871 5.79538 13.5497C5.58505 13.9135 5.56828 14.36 5.74376 14.7419C6.74893 16.9148 6.05731 19.4942 4.06247 20.9032C3.73215 21.151 3.54505 21.5445 3.55022 21.9561C3.55667 22.369 3.76312 22.7561 4.09989 22.9935C6.05731 24.3742 6.74764 26.9548 5.72441 29.1703C5.56183 29.5497 5.59022 29.9845 5.80183 30.3406C6.01473 30.6955 6.38247 30.9277 6.79538 30.9639C9.18505 31.1781 11.0767 33.0697 11.2909 35.4606C11.3283 35.8787 11.5722 36.249 11.9347 36.4594C12.2999 36.6684 12.7463 36.6877 13.1257 36.511C14.3683 35.9381 15.7851 35.92 17.0328 36.4116L11.7954 46.4516H0.965698V49.0323H37.0947V56.7742H8.70764V54.1935H0.965698V80H10.6431H11.9334H23.5463H24.8367H31.2883H32.5786H47.4173H52.5786H64.1915C69.1722 80 73.2238 75.9471 73.2238 70.9677V51.6129C73.2238 49.711 72.1786 48.0645 70.6431 47.169ZM62.6638 69.6774C62.8083 69.2723 62.9012 68.8413 62.9012 68.3871C62.9012 67.9329 62.8083 67.5019 62.6638 67.0968H66.7721C68.2302 67.0968 69.5618 66.5923 70.6431 65.7729V69.6774H62.6638ZM60.3205 68.3871C60.3205 69.0993 59.7412 69.6774 59.0302 69.6774H49.998H47.4173H40.9657C40.2547 69.6774 39.6754 69.0993 39.6754 68.3871V67.0968H48.8418H52.5786H59.0302C59.7412 67.0968 60.3205 67.6748 60.3205 68.3871ZM42.256 64.5161H39.6754V47.7419C39.6754 47.0297 40.2547 46.4516 40.9657 46.4516H42.256V64.5161ZM47.4173 64.5161H44.8367V49.0323H58.6767C56.5257 50.9252 55.1592 53.6903 55.1592 56.7742V58.9923L53.7102 59.3548H52.5786C49.7321 59.3548 47.4173 61.6697 47.4173 64.5161ZM57.7399 56.7742C57.7399 53.2026 60.1747 50.1961 63.4702 49.3071C63.118 50.0039 62.9012 50.7794 62.9012 51.6129V57.0568L57.7399 58.3471V56.7742ZM65.4818 51.6129C65.4818 50.1897 66.6392 49.0323 68.0625 49.0323C69.4857 49.0323 70.6431 50.1897 70.6431 51.6129V54.1935H65.4818V51.6129ZM61.6109 41.2903C59.4767 41.2903 57.7399 39.5535 57.7399 37.4194V30.9677C57.7399 30.2568 58.3192 29.6774 59.0302 29.6774H66.7721C67.4831 29.6774 68.0625 30.2568 68.0625 30.9677V34.8387H69.3528C70.0638 34.8387 70.6431 35.4181 70.6431 36.129C70.6431 36.84 70.0638 37.4194 69.3528 37.4194H68.0625V46.4516H65.4818V41.2903H61.6109ZM13.5528 33.6658C12.8186 31.3006 10.9618 29.4413 8.59796 28.7058C9.13989 26.3006 8.46376 23.769 6.78118 21.9394C8.45602 20.1277 9.13731 17.5948 8.59151 15.1665C10.9567 14.4323 12.8147 12.5755 13.5502 10.2129C15.9554 10.7535 18.4883 10.0787 20.3167 8.39613C22.1283 10.0697 24.6599 10.751 27.0896 10.2065C27.8096 12.5355 29.6212 14.369 31.9515 15.1252C31.9451 15.2452 31.9334 15.3626 31.9334 15.4839C31.9334 15.9252 31.9825 16.3561 32.0547 16.7819C32.0134 16.7819 31.9747 16.7742 31.9334 16.7742C31.0754 16.7742 30.2483 16.9303 29.4638 17.1974C27.7089 13.8142 24.1954 11.6129 20.3205 11.6129C14.6289 11.6129 9.99796 16.2439 9.99796 21.9355C9.99796 27.2594 14.0509 31.6542 19.2315 32.2L18.2315 34.1161C16.7657 33.4774 15.1257 33.3148 13.5528 33.6658ZM20.5554 29.6632C20.4767 29.6658 20.4005 29.6774 20.3205 29.6774C16.0509 29.6774 12.5786 26.2052 12.5786 21.9355C12.5786 17.6658 16.0509 14.1935 20.3205 14.1935C23.238 14.1935 25.8805 15.8594 27.1915 18.4168C26.3515 19.0774 25.6418 19.9135 25.127 20.8994L20.5554 29.6632ZM27.416 22.0929C28.2973 20.4039 30.0276 19.3548 31.9334 19.3548C33.8392 19.3548 35.5696 20.4039 36.4509 22.0929L49.1592 46.4516H44.8367V43.871H40.9657C39.2857 43.871 37.8663 44.9535 37.3322 46.4516H14.7076L27.416 22.0929ZM37.0947 59.3548V61.9355H8.70764V59.3548H37.0947ZM34.5141 64.5161L30.9012 67.2271C29.7154 68.1161 28.7618 69.2542 28.0625 70.5303C27.3631 69.2542 26.4096 68.1161 25.2238 67.2271L21.6109 64.5161H34.5141ZM13.8689 64.5161L10.256 67.2271C9.68441 67.6555 9.17215 68.1484 8.70764 68.6787V64.5161H13.8689ZM3.54635 56.7742H6.12699V75.4839C6.12699 76.1794 6.2986 76.831 6.57989 77.4193H3.54635V56.7742ZM23.5463 77.4193C22.4792 77.4193 21.6109 76.551 21.6109 75.4839C21.6109 74.4168 22.4792 73.5484 23.5463 73.5484H24.1915V70.9677H23.5463C21.056 70.9677 19.0302 72.9935 19.0302 75.4839C19.0302 76.1794 19.2018 76.831 19.4831 77.4193H15.9967C16.278 76.831 16.4496 76.1794 16.4496 75.4839C16.4496 72.9935 14.4238 70.9677 11.9334 70.9677H11.2883V73.5484H11.9334C13.0005 73.5484 13.8689 74.4168 13.8689 75.4839C13.8689 76.551 13.0005 77.4193 11.9334 77.4193H10.6431C9.57602 77.4193 8.70764 76.551 8.70764 75.4839C8.70764 73.0593 9.86505 70.7445 11.8044 69.2903L17.7399 64.8387L23.6754 69.2903C25.6147 70.7445 26.7721 73.0593 26.7721 75.4839C26.7721 76.551 25.9038 77.4193 24.8367 77.4193H23.5463ZM31.2883 77.4193C30.2212 77.4193 29.3528 76.551 29.3528 75.4839C29.3528 73.0593 30.5102 70.7445 32.4496 69.2903L37.0947 65.8064V68.3871C37.0947 70.5213 38.8315 72.2581 40.9657 72.2581H42.9734C42.5296 73.0206 42.256 73.8942 42.256 74.8387C42.256 75.7832 42.5296 76.6568 42.9734 77.4193H36.6418C36.9231 76.831 37.0947 76.1794 37.0947 75.4839C37.0947 72.9935 35.0689 70.9677 32.5786 70.9677H31.9334V73.5484H32.5786C33.6457 73.5484 34.5141 74.4168 34.5141 75.4839C34.5141 76.551 33.6457 77.4193 32.5786 77.4193H31.2883ZM64.1915 77.4193H52.5786H47.4173C45.9941 77.4193 44.8367 76.2619 44.8367 74.8387C44.8367 73.4155 45.9941 72.2581 47.4173 72.2581H49.998H70.5128C69.9128 75.1987 67.3063 77.4193 64.1915 77.4193ZM66.7721 64.5161H52.5786H49.998C49.998 63.0929 51.1554 61.9355 52.5786 61.9355H53.8689L63.7915 59.489L65.8599 61.5574L67.6844 59.7329L65.4818 57.5303V56.7742H70.6431V60.6452C70.6431 62.7794 68.9063 64.5161 66.7721 64.5161Z" fill="#464045"/>
</g>
<defs>
<clipPath id="clip0_1_128">
<rect width="80" height="80" fill="white" transform="translate(0.965698)"/>
</clipPath>
</defs>
</svg>
