<svg width="81" height="80" viewBox="0 0 81 80" fill="none" xmlns="http://www.w3.org/2000/svg">
<g clip-path="url(#clip0_1_167)">
<path d="M57.5403 0C50.0811 0 44.0116 6.36774 44.0116 14.1935V27.0968C44.0116 30.0039 45.3768 32.7303 47.6053 34.4168C48.2707 33.9987 49 33.6748 49.7908 33.4916L55.0805 32.2581V29.0323C55.0805 28.6258 54.8985 28.2439 54.5886 28L53.1127 26.8387C51.2544 25.3768 50.1598 23.0813 50.161 20.6439V15.4839H50.6456C53.4165 15.4839 56.003 14.031 57.5403 11.6129C59.0764 14.031 61.6641 15.4839 64.435 15.4839H64.9184L64.9196 20.6452C64.9196 23.0826 63.8262 25.3768 61.9679 26.8387L60.492 28C60.1821 28.2439 60.0001 28.6258 60.0001 29.0323V32.2581L65.291 33.4916C66.0831 33.6761 66.8198 33.9935 67.4864 34.4129C69.71 32.7265 71.069 30.0052 71.069 27.0968V14.1935C71.069 6.36774 64.9995 0 57.5403 0Z" fill="#FCC53B"/>
<path d="M11.0812 16.8981C11.4883 16.0619 12.3086 15.4839 13.2642 15.4839H15.724L15.831 15.4284C17.3893 14.6103 18.811 13.5355 20.0433 12.2426L20.6435 11.6129C23.0061 14.0916 26.21 15.4839 29.5516 15.4839H30.4826H32.9424C33.7885 15.4839 34.535 15.9329 34.9766 16.6155L35.0823 16.4374C36.0958 14.7303 36.632 12.7639 36.632 10.7523C36.632 4.82323 32.0347 0 26.3834 0H20.844C18.2108 0 15.8593 1.62323 14.7991 4.10323C11.6924 5.21548 9.57458 8.27742 9.57458 11.7716V12.0761C9.57458 13.7045 10.0358 15.2774 10.9065 16.6245L11.0812 16.8981Z" fill="#FCC53B"/>
<path d="M74.4881 51.7625C74.659 51.3161 74.7587 50.8322 74.7587 50.3225V40C74.7587 37.8658 73.1032 36.129 71.069 36.129H70.9005C69.6755 34.1535 67.7692 32.7471 65.5567 32.2322L61.2299 31.2232V29.0322L62.7058 27.8709C64.8618 26.1754 66.1495 23.4735 66.1495 20.6451L66.1482 14.1935H64.4338C62.07 14.1935 59.8746 12.9612 58.5636 10.8967L57.5403 9.28638L56.517 10.8967C55.206 12.9612 53.0106 14.1935 50.6468 14.1935H48.9311V20.6425C48.9311 23.4709 50.2176 26.1742 52.3748 27.8709L53.8507 29.0322V31.2232L49.5227 32.2322C45.5539 33.1574 42.7817 36.7832 42.7817 41.049V42.5806C42.7817 45.6954 44.8983 48.3019 47.7012 48.9019V49.0322C47.7012 49.9767 47.962 50.8503 48.3851 51.6129H40.0944C40.2334 51.2077 40.3219 50.7767 40.3219 50.3225V40C40.3219 37.8658 38.6665 36.129 36.6323 36.129H36.4638C35.2388 34.1535 33.3325 32.7471 31.12 32.2322L26.7932 31.2232V29.0322L28.2691 27.8709C30.093 26.4361 31.286 24.2787 31.6131 21.9354H32.9426C34.9769 21.9354 36.6323 20.1987 36.6323 18.0645C36.6323 15.9303 34.9769 14.1935 32.9426 14.1935H31.7115H30.4829H29.5519C26.5153 14.1935 23.6607 12.9535 21.5133 10.7006L20.6438 9.78831L19.1741 11.3303C18.093 12.4645 16.8546 13.4064 15.4107 14.1935H13.2645C11.2303 14.1935 9.57488 15.9303 9.57488 18.0645C9.57488 20.1987 11.2303 21.9354 13.2645 21.9354H14.594C14.9212 24.2774 16.1129 26.4348 17.9368 27.8709L19.4139 29.0322V31.2232L15.086 32.2322C11.1172 33.1574 8.345 36.7832 8.345 41.049V42.5806C8.345 45.6954 10.4616 48.3019 13.2645 48.9019V49.0322C13.2645 49.9767 13.5253 50.8503 13.9483 51.6129H3.42547C2.0689 51.6129 0.965698 52.7703 0.965698 54.1935V80H74.7587V59.3548C76.1152 59.3548 77.2184 58.1974 77.2184 56.7742V55.4838C77.2184 53.6993 76.0562 52.2077 74.4881 51.7625ZM32.9426 16.7741C33.6203 16.7741 34.1725 17.3535 34.1725 18.0645C34.1725 18.7754 33.6203 19.3548 32.9426 19.3548H31.7128V16.7741H32.9426ZM60.0001 46.4516V40C60.0001 39.289 60.5523 38.7096 61.2299 38.7096H62.4598V46.4516H60.0001ZM64.9196 49.0322H72.2989V50.3225C72.2989 51.0335 71.7467 51.6129 71.069 51.6129H64.6933C64.831 51.2077 64.9196 50.7767 64.9196 50.3225V49.0322ZM72.2989 40V46.4516H64.9196V38.7096H71.069C71.7467 38.7096 72.2989 39.289 72.2989 40ZM53.8507 25.8064C52.3096 24.5948 51.3909 22.6632 51.3909 20.6438V16.7445C53.7449 16.5522 55.9292 15.4529 57.5403 13.6735C59.1514 15.4529 61.3345 16.5509 63.6885 16.7445L63.6897 20.6451C63.6897 22.6658 62.7698 24.5948 61.2299 25.8064L59.7553 26.9664C59.1391 27.4503 58.7702 28.2232 58.7702 29.0322V31.7238C58.1233 32.4025 56.9598 32.4038 56.3104 31.7238V29.0322C56.3104 28.2245 55.9427 27.4516 55.3265 26.9677L53.8507 25.8064ZM50.0577 34.7509L54.7091 33.6671C55.4852 34.4167 56.4789 34.8387 57.5403 34.8387C58.6017 34.8387 59.5954 34.4167 60.3727 33.6671L65.0241 34.7509C66.008 34.9806 66.9034 35.4619 67.6549 36.129H61.2299C59.1957 36.129 57.5403 37.8658 57.5403 40V46.4516H55.0805V45.1612C55.0805 43.0271 53.4251 41.2903 51.3909 41.2903V40.3045C51.3909 39.8129 51.6516 39.3703 52.071 39.1509L53.1718 38.5742L52.071 36.2658L50.9703 36.8425C49.7121 37.5019 48.9311 38.8296 48.9311 40.3045V41.2903H45.2415V41.049C45.2415 38.0025 47.2216 35.4116 50.0577 34.7509ZM45.4678 43.8709H48.9311H50.161H51.3909C52.0686 43.8709 52.6208 44.4503 52.6208 45.1612V46.4516H48.9311C47.3298 46.4516 45.9769 45.369 45.4678 43.8709ZM50.161 49.0322H58.7702H62.4598V50.3225C62.4598 51.0335 61.9076 51.6129 61.2299 51.6129H58.7702H52.6208C51.2642 51.6129 50.161 50.4554 50.161 49.0322ZM25.5634 46.4516V40C25.5634 39.289 26.1156 38.7096 26.7932 38.7096H28.0231V46.4516H25.5634ZM30.4829 49.0322H37.8622V50.3225C37.8622 51.0335 37.31 51.6129 36.6323 51.6129H30.2566C30.3943 51.2077 30.4829 50.7767 30.4829 50.3225V49.0322ZM37.8622 40V46.4516H30.4829V38.7096H36.6323C37.31 38.7096 37.8622 39.289 37.8622 40ZM12.0346 18.0645C12.0346 17.3535 12.5869 16.7741 13.2645 16.7741H14.4944V19.3548H13.2645C12.5869 19.3548 12.0346 18.7754 12.0346 18.0645ZM19.4139 25.8064C17.8729 24.5948 16.9542 22.6632 16.9542 20.6438V16.2683C18.312 15.489 19.5615 14.5251 20.6783 13.3961C23.0864 15.5174 26.0811 16.7006 29.2518 16.7716L29.253 20.6451C29.253 22.6658 28.333 24.5948 26.7932 25.8064L25.3186 26.9664C24.7024 27.4503 24.3335 28.2232 24.3335 29.0322V31.7238C23.6866 32.4025 22.5231 32.4038 21.8737 31.7238V29.0322C21.8737 28.2245 21.506 27.4516 20.8898 26.9677L19.4139 25.8064ZM15.621 34.7509L20.2724 33.6671C21.0485 34.4167 22.0422 34.8387 23.1036 34.8387C24.165 34.8387 25.1587 34.4167 25.936 33.6671L30.5874 34.7509C31.5713 34.9806 32.4667 35.4619 33.2181 36.129H26.7932C24.759 36.129 23.1036 37.8658 23.1036 40V46.4516H20.6438V45.1612C20.6438 43.0271 18.9884 41.2903 16.9542 41.2903V40.3045C16.9542 39.8129 17.2149 39.3703 17.6343 39.1509L18.735 38.5742L17.6343 36.2658L16.5336 36.8425C15.2754 37.5019 14.4944 38.8296 14.4944 40.3045V41.2903H10.8048V41.049C10.8048 38.0025 12.7849 35.4116 15.621 34.7509ZM11.0311 43.8709H14.4944H15.7243H16.9542C17.6318 43.8709 18.1841 44.4503 18.1841 45.1612V46.4516H14.4944C12.8931 46.4516 11.5402 45.369 11.0311 43.8709ZM15.7243 49.0322H24.3335H28.0231V50.3225C28.0231 51.0335 27.4709 51.6129 26.7932 51.6129H24.3335H18.1841C16.8275 51.6129 15.7243 50.4554 15.7243 49.0322ZM3.42547 59.3548H15.7243V60.6451V77.4193H3.42547V59.3548ZM67.3794 77.4193H64.9196V65.8064C64.9196 63.3458 63.975 61.1148 62.4488 59.4838C65.2566 60.0787 67.3794 62.6864 67.3794 65.8064V77.4193ZM62.4598 65.8064V77.4193H57.5403V66.3406L59.6397 64.138L57.9007 62.3135L55.8012 64.5161H53.8507C51.8164 64.5161 50.161 62.7793 50.161 60.6451V59.3548H56.3104C59.7012 59.3548 62.4598 62.249 62.4598 65.8064ZM35.4024 77.4193H32.9426V65.8064C32.9426 63.3458 31.9981 61.1148 30.4718 59.4838C33.2796 60.0787 35.4024 62.6864 35.4024 65.8064V77.4193ZM37.8622 67.0967H53.8507H55.0805V69.6774H37.8622V67.0967ZM37.8622 72.258H55.0805V77.4193H37.8622V72.258ZM48.9631 64.5161H37.7638C37.4883 62.5071 36.588 60.7109 35.2659 59.3548H47.7012V60.6451C47.7012 62.1032 48.1821 63.4348 48.9631 64.5161ZM30.4829 65.8064V77.4193H25.5634V66.3406L27.6628 64.138L25.9237 62.3135L23.8243 64.5161H21.8737C19.8395 64.5161 18.1841 62.7793 18.1841 60.6451V59.3548H24.3335C27.7243 59.3548 30.4829 62.249 30.4829 65.8064ZM23.1036 69.6774H18.1841V65.7729C19.2147 66.5922 20.4839 67.0967 21.8737 67.0967H23.1036V69.6774ZM18.1841 72.258H23.1036V77.4193H18.1841V72.258ZM72.2989 77.4193H69.8391V65.8064C69.8391 63.28 68.8429 60.9961 67.2441 59.3548H72.2989V77.4193ZM74.7587 56.7742H3.42547V54.1935H18.1841H24.3335H26.7932H36.6323H52.6208H58.7702H61.2299H71.069H73.5288C74.2064 54.1935 74.7587 54.7729 74.7587 55.4838V56.7742Z" fill="#464045"/>
</g>
<defs>
<clipPath id="clip0_1_167">
<rect width="80" height="80" fill="white" transform="translate(0.965698)"/>
</clipPath>
</defs>
</svg>
