<svg width="175" height="51" viewBox="0 0 175 51" fill="none" xmlns="http://www.w3.org/2000/svg">
<path d="M13.5776 23.6609H13.5667L4.33537 23.6152C4.14576 24.4017 4.00775 25.1998 3.92221 26.0044L12.3772 26.0479C15.3388 23.5357 19.0919 22.1589 22.9694 22.1621H23.0507C23.1776 22.1621 23.3045 22.1654 23.4314 22.1697L24.3205 22.2176C24.4507 22.2285 24.5786 22.2394 24.7066 22.2535L24.7792 22.2622C24.879 22.2731 24.9755 22.284 25.072 22.2971L25.5806 22.37C25.6858 22.3863 25.7877 22.4037 25.8896 22.4223L25.9374 22.431C26.0697 22.4538 26.1911 22.4789 26.3115 22.5039L26.4102 22.5257C26.4991 22.5431 26.588 22.5627 26.6758 22.5833L27.1465 22.6998L27.5119 22.7978C27.6247 22.8308 27.7372 22.8653 27.8491 22.9012L28.696 23.1907C28.7958 23.2266 28.8934 23.2647 28.9899 23.3039L29.801 23.65C29.9062 23.6979 30.0071 23.7447 30.1068 23.7937L31.1771 24.3619C31.2866 24.4261 31.3864 24.486 31.4851 24.5469L32.1997 25.0084C32.2994 25.077 32.3927 25.1401 32.4849 25.2054L32.5586 25.2599C32.6237 25.3078 32.6931 25.3578 32.7614 25.4101L33.437 25.9434C33.5259 26.0163 33.605 26.0827 33.681 26.1502L34.3316 26.7434C34.4075 26.8153 34.4769 26.8849 34.5452 26.9546C34.5485 26.9579 34.5832 26.9894 34.5853 26.9938L35.391 27.8667L35.6057 28.1214L36.8126 29.7922L36.997 30.0894C37.0555 30.1884 37.1119 30.2842 37.1662 30.38L38.0814 32.2467L38.2115 32.5732C38.2549 32.6799 38.2928 32.7833 38.3308 32.8867C38.8263 34.2462 39.1343 35.6644 39.2525 37.1121L89.8065 37.7565C89.8605 36.1249 90.1618 34.511 90.7 32.9705C90.6956 32.8809 90.7092 32.7913 90.7401 32.7071C92.9924 26.5878 98.6735 22.4125 105.213 22.0696C105.404 22.0576 105.596 22.0507 105.787 22.0489L105.918 22.0446C106.099 22.0327 106.28 22.0334 106.46 22.0467L106.701 22.0554C106.84 22.0588 106.979 22.0642 107.118 22.0718L107.299 22.0848L107.404 22.0935C107.516 22.1027 107.628 22.1125 107.74 22.1229C107.879 22.1371 108.016 22.1512 108.152 22.1686L108.296 22.1871C110.511 22.4801 112.643 23.2252 114.56 24.3764C116.477 25.5277 118.139 27.0607 119.444 28.8812L126.934 28.9182L126.936 28.5437C126.934 28.5253 126.933 28.5068 126.934 28.4882L126.972 20.3357C126.972 20.1583 127.043 19.9895 127.169 19.8644C127.298 19.7427 127.467 19.674 127.644 19.6717L128.202 19.675L128.224 15.4626C128.224 15.2841 128.294 15.1143 128.422 14.9913C128.553 14.8735 128.72 14.805 128.895 14.7976L129.655 14.8009C128.22 12.2582 125.769 8.03609 123.988 5.60121C123.886 5.46169 123.843 5.28771 123.867 5.11632C123.89 4.94493 123.98 4.78968 124.116 4.68364C125.934 3.26429 126.314 2.8202 126.388 2.71788C126.597 2.424 126.782 2.00821 126.923 1.62725L106.247 1.54017L64.266 1.33336H64.2085C57.9831 1.33336 49.9706 6.3947 44.6625 10.1858C45.7209 9.78089 46.7966 9.54796 47.6706 9.63068C47.7704 9.64011 47.8668 9.6719 47.9528 9.7237C48.0387 9.7755 48.112 9.846 48.1672 9.93001L48.8623 9.41626C53.2703 6.15088 58.265 2.45012 65.2278 2.45012H65.3232C65.6041 2.4523 66.3035 2.4523 67.4486 2.4523L77.49 2.45012C77.5781 2.4491 77.6656 2.46574 77.7472 2.49905C77.8288 2.53235 77.903 2.58167 77.9654 2.6441C78.0278 2.70654 78.0771 2.78084 78.1106 2.86266C78.144 2.94448 78.1609 3.03217 78.1602 3.12061L78.1103 13.1388C78.1089 13.3159 78.0375 13.4853 77.9119 13.6098C77.7863 13.7342 77.6167 13.8036 77.4402 13.8027L48.2594 13.7559L48.254 15.0643C48.253 15.2096 48.2049 15.3506 48.1168 15.4659C48.0287 15.5813 47.9055 15.6646 47.766 15.7032C47.291 15.8371 46.5461 15.8643 46.0039 15.8643C45.1212 15.8643 40.6958 15.7827 40.2566 14.1859C40.1645 13.8539 40.2317 13.4947 40.4551 13.1148C39.7004 13.4708 39.3989 13.5981 39.3837 13.6046C39.3186 13.6313 39.2499 13.6481 39.1799 13.6547C38.976 13.6721 19.2966 15.3364 11.5617 16.2485L16.0868 16.2703C16.4078 16.2735 16.6832 16.4999 16.7418 16.8145C16.8405 17.3337 16.8893 17.8736 16.886 18.4189C16.8719 21.3588 15.4188 23.6609 13.5776 23.6609ZM13.5732 22.3276L13.5776 22.9948V22.3276C14.4993 22.3276 15.536 20.7188 15.5468 18.4124C15.5479 18.1381 15.5349 17.8681 15.5067 17.6026L7.80214 17.5645C6.23087 18.7487 5.28529 20.5751 4.71598 22.2829L13.5732 22.3276ZM74.8691 17.6581H74.8669C74.69 17.6581 74.5204 17.5875 74.3953 17.462C74.2703 17.3365 74.2 17.1662 74.2 16.9887V16.6926L68.4604 16.6643L68.4571 16.9593C68.456 17.1363 68.3849 17.3057 68.2594 17.4302C68.134 17.5547 67.9645 17.6241 67.7881 17.6232H67.7848C67.608 17.6227 67.4387 17.5518 67.3139 17.4261C67.1891 17.3004 67.119 17.1302 67.119 16.9527L67.1201 16.5914C67.1233 15.8926 67.6493 15.3288 68.3096 15.3288L74.3648 15.3592C74.6652 15.3614 74.9504 15.4833 75.1694 15.7032C75.4069 15.9427 75.5425 16.2833 75.5403 16.6349L75.5392 16.9941C75.5378 17.1713 75.4665 17.3406 75.3408 17.4651C75.2152 17.5895 75.0456 17.6589 74.8691 17.6581ZM102.216 17.793H102.213C102.125 17.7929 102.039 17.7754 101.958 17.7417C101.877 17.7079 101.803 17.6585 101.742 17.5962C101.68 17.5339 101.631 17.4601 101.597 17.3788C101.564 17.2975 101.547 17.2105 101.547 17.1225L101.548 16.8276L95.8074 16.7993L95.8042 17.0953C95.8025 17.2722 95.7312 17.4412 95.6059 17.5656C95.4805 17.69 95.3113 17.7596 95.1351 17.7593H95.1319C94.9549 17.7587 94.7854 17.6877 94.6606 17.5618C94.5357 17.4358 94.4658 17.2654 94.466 17.0877V16.7285C94.4704 16.0286 95.0082 15.4746 95.6556 15.4648L101.711 15.4953C102.364 15.4975 102.891 16.07 102.888 16.7688L102.886 17.1291C102.885 17.3062 102.814 17.4756 102.688 17.6001C102.562 17.7245 102.393 17.7939 102.216 17.793ZM103.588 13.8452H103.586L80.5545 13.8071C80.377 13.8069 80.2067 13.7365 80.0806 13.6112C80.0183 13.5493 79.969 13.4755 79.9354 13.3942C79.9019 13.3129 79.8849 13.2257 79.8854 13.1377L79.9364 3.11299C79.9378 2.93602 80.009 2.76682 80.1344 2.6424C80.2598 2.51797 80.4292 2.44845 80.6055 2.44903L103.638 2.44032C103.726 2.43931 103.813 2.45591 103.894 2.48917C103.976 2.52242 104.05 2.57165 104.112 2.63399C104.175 2.69632 104.224 2.7705 104.257 2.85219C104.291 2.93388 104.308 3.02143 104.307 3.10973L104.257 13.1812C104.256 13.3582 104.184 13.5274 104.059 13.6518C103.934 13.7763 103.764 13.8458 103.588 13.8452ZM81.229 12.4748L102.921 12.5097L102.964 3.77369L81.2724 3.78348L81.229 12.4748ZM126.41 13.8811H126.409L106.702 13.8506C106.525 13.8504 106.355 13.7795 106.23 13.6536C106.105 13.5276 106.034 13.357 106.034 13.1791L106.084 3.10211C106.086 2.92514 106.157 2.75594 106.282 2.63151C106.408 2.50709 106.577 2.43757 106.753 2.43815L116.888 2.43271C116.939 2.43271 116.989 2.43924 117.036 2.45012C120.907 3.32306 124.252 8.58032 126.467 12.059L126.923 12.7742C127.006 12.8712 127.06 12.9902 127.078 13.1171C127.096 13.244 127.078 13.3735 127.025 13.4901C126.971 13.6067 126.886 13.7055 126.779 13.7748C126.671 13.8441 126.546 13.881 126.418 13.8811H126.41ZM107.377 12.5184L125.189 12.5467C123.221 9.45544 120.037 4.55738 116.811 3.76824L107.42 3.7726L107.377 12.5184ZM46.9332 11.1687V11.1665L46.9343 10.9662C44.7536 11.1643 41.9168 13.0931 41.5828 13.8234C42.0199 14.126 43.8438 14.5309 46.0039 14.5309C46.404 14.5309 46.7011 14.5146 46.9169 14.4961L46.9332 11.2634V11.1687ZM48.267 12.4226L76.7733 12.4683L76.8166 3.78566L67.4486 3.78784L65.3157 3.78675H65.2278C58.7085 3.78675 53.9025 7.3471 49.6615 10.4873C49.1909 10.8367 48.7289 11.1796 48.2713 11.5115L48.2681 12.0667L48.267 12.4226ZM90.4712 39.1007H90.4625L38.6127 38.4389C38.4423 38.4374 38.2789 38.3705 38.1561 38.2519C38.0333 38.1333 37.9604 37.972 37.9523 37.8011C37.8856 36.1773 37.5522 34.5756 36.9655 33.0608L36.1577 31.3193L35.9994 31.0363C35.9513 30.9506 35.9018 30.8656 35.8508 30.7816L34.5647 28.9628C34.5051 28.8899 34.44 28.8137 34.376 28.7375L33.6191 27.919C33.5324 27.8319 33.4673 27.7688 33.4023 27.7056L32.8037 27.1581C32.731 27.0961 32.6595 27.0341 32.5868 26.9753L31.6976 26.2852L31.446 26.111L30.7791 25.68C30.6913 25.6256 30.5991 25.5723 30.508 25.5178L29.5169 24.9932C29.428 24.9497 29.3369 24.9061 29.2447 24.8648L27.5021 24.1954L27.1768 24.0941L27.1302 24.0789L26.807 23.9918L26.3733 23.8851C26.2929 23.866 26.2123 23.8478 26.1315 23.8307L26.0339 23.81C25.9254 23.7883 25.8159 23.7654 25.7053 23.7447L25.6511 23.736C25.5589 23.7186 25.4646 23.7034 25.3713 23.6881L24.8953 23.6196L24.6318 23.588L24.5624 23.5815C24.4461 23.5691 24.3297 23.5582 24.2132 23.5488L23.3901 23.5042C23.2749 23.4996 23.1596 23.4974 23.0442 23.4976H22.9683C19.3286 23.4946 15.8112 24.816 13.0679 27.2169C12.9449 27.325 12.7868 27.3842 12.6233 27.3834L8.45928 27.3628C8.39582 27.3759 8.33078 27.3796 8.26626 27.3736L8.18601 27.3628L2.22732 27.3312C2.00354 27.3303 1.78848 27.4183 1.62903 27.5759C1.46958 27.7335 1.37866 27.948 1.37608 28.1726L1.3403 35.3325C1.34058 35.5571 1.42953 35.7724 1.58765 35.9313C1.74577 36.0902 1.96019 36.1798 2.18395 36.1804L4.00246 36.188C4.11778 36.1886 4.23102 36.2189 4.33129 36.2761C4.43156 36.3333 4.51549 36.4154 4.57501 36.5145C5.15299 37.4833 6.12243 38.7208 7.47682 39.1889L9.13918 39.1976L9.10882 37.4778C9.10882 37.4593 9.10882 37.4397 9.11099 37.419C9.23027 35.7809 9.63583 34.195 10.3168 32.706L10.6421 32.0464C10.6812 31.968 10.7213 31.894 10.7614 31.8211L11.1963 31.0809C11.244 31.0058 11.2917 30.9318 11.3416 30.8589L11.7135 30.3179C11.7927 30.2113 11.8697 30.1068 11.9499 30.0023L13.1904 28.6025L13.9983 27.8656C14.0666 27.8069 14.1306 27.7535 14.1946 27.7024L14.7606 27.267C14.8365 27.2104 14.9081 27.1581 14.9818 27.1081L16.4002 26.2351L16.642 26.1099C16.7483 26.0555 16.8329 26.012 16.9164 25.9728L17.2721 25.8074C17.3447 25.7747 17.413 25.7442 17.4835 25.7159L17.5432 25.6887L17.8088 25.5799L18.4703 25.3361C18.5633 25.3035 18.657 25.2726 18.7512 25.2435L19.0342 25.1565L19.4148 25.052L19.6425 24.9932L19.7477 24.9671L19.9928 24.9126L20.6911 24.7788C20.7887 24.7624 20.8885 24.7472 20.9882 24.7341L21.0663 24.7233C21.1455 24.7124 21.2268 24.7015 21.3081 24.6928L21.3819 24.6841C21.4599 24.6743 21.5391 24.6656 21.6183 24.659L21.6931 24.6514L22.0043 24.6264L22.72 24.5959L23.0345 24.5937L23.3544 24.5992L23.7827 24.6177C23.89 24.6231 23.9909 24.6296 24.0917 24.6394L24.5125 24.6797C24.5906 24.6862 24.673 24.6971 24.7543 24.7069L24.8226 24.7178C24.9235 24.7287 25.0265 24.745 25.1295 24.7603L25.8517 24.8931C25.9515 24.9137 26.0491 24.9344 26.1477 24.9584L26.806 25.1282L26.8493 25.1412C26.9437 25.1673 27.0337 25.1956 27.1258 25.225L27.5238 25.3556L27.7721 25.4427L27.796 25.4525C27.8042 25.4548 27.8121 25.4577 27.8199 25.4612L28.4737 25.7225L28.734 25.8378L29.9962 26.4909L31.1034 27.2136C31.1728 27.2626 31.2378 27.3105 31.3018 27.3584L31.7692 27.723L31.9785 27.8972L33.0997 28.9628C33.1572 29.0216 33.2136 29.0825 33.2689 29.1457L33.6506 29.5832C33.7211 29.667 33.7916 29.7541 33.862 29.8423L34.2307 30.3266L34.4476 30.6314L34.8087 31.1865C34.8597 31.2692 34.9096 31.3509 34.9573 31.4336L35.237 31.9299L35.3596 32.164L35.6762 32.8279C36.3682 34.3789 36.7654 36.046 36.8473 37.7434V39.0626C36.8398 39.2193 36.8311 39.3652 36.8213 39.5023L91.5707 40.2C91.5932 40.0393 91.6727 39.8922 91.7946 39.7856C91.9166 39.679 92.0727 39.6202 92.2344 39.6199H92.3038C92.2582 39.1421 92.2344 38.6621 92.2366 38.1853C92.2647 32.6309 95.6524 27.6305 100.747 25.4961C100.774 25.4801 100.801 25.4663 100.83 25.4547C100.934 25.4122 101.038 25.3731 101.145 25.3328C101.169 25.3234 101.193 25.3154 101.219 25.3088L101.507 25.2033L101.598 25.1717L101.64 25.1565H101.642L101.645 25.1543C101.798 25.1042 101.95 25.0552 102.106 25.0095H102.108L102.159 24.9932L102.2 24.9823C102.759 24.8146 103.329 24.6847 103.906 24.5937C104.479 24.5003 105.058 24.4432 105.638 24.4228H105.704C105.855 24.4174 106.009 24.412 106.163 24.412L106.366 24.4152C106.61 24.4207 106.853 24.4315 107.093 24.4479L107.328 24.4664C109.784 24.6793 112.139 25.5455 114.15 26.9758C116.162 28.4061 117.757 30.3488 118.771 32.6037C118.83 32.6626 118.877 32.732 118.91 32.8083C119.853 34.9943 120.211 37.3895 119.949 39.757L131.611 39.8136C131.84 39.8151 132.061 39.7253 132.225 39.5637C132.389 39.4022 132.483 39.1822 132.486 38.9516L132.512 33.776L132.507 33.7161C132.502 33.5941 132.529 33.4729 132.587 33.3655C132.645 33.2581 132.731 33.1686 132.836 33.1066L132.85 30.2831L131.907 30.2777L131.874 30.2787H131.871L119.089 30.2156C118.981 30.2148 118.874 30.1878 118.779 30.137C118.683 30.0863 118.601 30.0132 118.539 29.9239C117.348 28.182 115.805 26.7111 114.01 25.6064C112.216 24.5018 110.21 23.7881 108.123 23.5118L107.982 23.4944C107.757 23.4658 107.531 23.4429 107.304 23.4258L107.033 23.404C106.957 23.3996 106.88 23.396 106.804 23.3932C106.769 23.3932 106.736 23.3932 106.702 23.391L106.656 23.3899H106.627L106.396 23.3801H106.386C106.31 23.3768 106.233 23.3725 106.155 23.3725C106.092 23.3725 106.039 23.3747 105.987 23.3779L105.936 23.3801L105.81 23.3855C105.636 23.3888 105.461 23.3921 105.285 23.4019C99.3707 23.7121 94.221 27.4357 92.0913 32.9172C92.0942 33.0024 92.0806 33.0875 92.0511 33.1675C91.4526 34.7922 91.1428 36.5097 91.1359 38.2419L91.1381 38.3105C91.1577 38.4078 91.1552 38.5084 91.1307 38.6046C91.1062 38.7009 91.0605 38.7904 90.9968 38.8664C90.9331 38.9425 90.8532 39.0031 90.7629 39.0439C90.6727 39.0846 90.5744 39.1044 90.4755 39.1018H90.4712V39.1007ZM10.718 15.0077C17.6581 14.1467 37.2995 12.477 38.9554 12.3355C39.1365 12.256 39.5876 12.0525 40.4171 11.6541C48.1022 5.88421 56.929 0 64.2085 0H64.2736L106.254 0.206807L127.835 0.296061C127.936 0.296351 128.036 0.319605 128.127 0.364085C128.218 0.408566 128.298 0.473123 128.361 0.552937C128.423 0.632205 128.467 0.724874 128.488 0.823774C128.509 0.922674 128.508 1.02516 128.483 1.12329C128.468 1.18315 128.111 2.60904 127.479 3.49395C127.313 3.72253 126.919 4.16118 125.445 5.3378C128.139 9.17789 131.851 15.9873 132.014 16.2877C132.044 16.3421 132.065 16.3998 132.079 16.4586C132.101 16.5533 132.598 18.7781 132.586 20.9605C132.581 22.358 132.56 26.357 132.547 28.9465L133.475 28.9508C133.501 28.9508 133.528 28.9519 133.554 28.9563C133.721 28.9637 133.88 29.0336 133.998 29.1522C134.123 29.2774 134.194 29.4482 134.192 29.6257L134.172 33.6856C134.171 33.8004 134.141 33.913 134.084 34.0126C134.028 34.1122 133.946 34.1953 133.848 34.2538L133.824 38.9559C133.818 39.54 133.582 40.0981 133.168 40.5085C132.755 40.919 132.196 41.1485 131.614 41.147L119.178 41.085C119.082 41.0848 118.986 41.0636 118.899 41.0229C118.811 40.9822 118.734 40.9229 118.671 40.8491C118.609 40.7752 118.563 40.6887 118.538 40.5955C118.512 40.5022 118.506 40.4044 118.522 40.3089C118.901 38.0231 118.638 35.6764 117.763 33.5322C117.708 33.4741 117.663 33.4066 117.631 33.333C116.733 31.2493 115.291 29.4484 113.456 28.1211C111.621 26.7939 109.463 25.9898 107.21 25.7943L107 25.7769C106.784 25.7627 106.565 25.7529 106.343 25.7486L106.199 25.7442C106.031 25.7431 105.885 25.7486 105.746 25.754L105.486 25.7627C104.608 25.8083 103.738 25.9462 102.89 26.1742L102.716 26.221L102.7 26.2275L102.518 26.2776C102.337 26.332 102.158 26.3897 101.98 26.4517C96.9699 28.2129 93.6029 32.9281 93.5758 38.1908C93.5725 38.821 93.6191 39.4577 93.7102 40.0847C93.7418 40.1851 93.7493 40.2915 93.7322 40.3954C93.715 40.4993 93.6737 40.5976 93.6116 40.6825C93.5495 40.7673 93.4683 40.8363 93.3746 40.8837C93.281 40.9311 93.1775 40.9557 93.0726 40.9554L93.0639 40.9565H92.898C92.8783 41.1191 92.7996 41.2687 92.677 41.3767C92.5544 41.4847 92.3964 41.5436 92.2333 41.5421H92.2257L36.1664 40.827C36.0227 40.8255 35.8833 40.7775 35.7688 40.6903C35.6544 40.6031 35.571 40.4812 35.5309 40.3426C35.4539 40.2158 35.4214 40.0667 35.4387 39.9192C35.4691 39.6569 35.493 39.3641 35.5081 39.0278L35.5103 37.7739C35.4326 36.2541 35.0748 34.762 34.4552 33.3732L34.1624 32.7615C34.1301 32.6977 34.0972 32.6342 34.0637 32.571L33.8013 32.1074C33.7578 32.0324 33.7134 31.958 33.6679 31.8842L33.3405 31.3835C33.2776 31.2921 33.2125 31.1985 33.1453 31.1082L32.8156 30.6728C32.7521 30.5931 32.6874 30.5143 32.6215 30.4366L32.2767 30.0393L32.1281 29.8793L31.1066 28.9106C31.046 28.8581 30.9845 28.8066 30.9223 28.756L30.4929 28.4197C30.4365 28.3774 30.3798 28.3356 30.3226 28.2945L28.978 27.4488L28.1755 27.0493L27.9489 26.9481L27.3525 26.7086C27.3439 26.7069 27.3356 26.7043 27.3275 26.701C27.2408 26.6683 27.1671 26.6422 27.0933 26.6183L26.7235 26.4953C26.6455 26.4735 26.5631 26.4463 26.4806 26.4223C26.4638 26.4169 26.4468 26.4118 26.4297 26.4071L25.8365 26.2547C25.7514 26.2345 25.6661 26.2153 25.5806 26.197L24.9137 26.0751L24.6535 26.0381L24.583 26.0294C24.513 26.02 24.4428 26.0116 24.3726 26.0044L23.9757 25.9652L23.709 25.9478L23.3132 25.9314L23.029 25.9249C22.938 25.9249 22.8425 25.9271 22.7471 25.9293L22.0954 25.9565L21.82 25.9782L21.7473 25.9859C21.6747 25.9935 21.6063 25.9989 21.5369 26.0076L21.461 26.0163L21.2463 26.0425L21.1704 26.0544C21.0869 26.0653 20.9991 26.0795 20.9134 26.0936L19.9624 26.2885C19.8952 26.3039 19.8283 26.3206 19.7618 26.3385L19.4094 26.4365C19.3335 26.4583 19.2576 26.4833 19.1806 26.5072C19.0721 26.5399 18.9908 26.5671 18.9084 26.5954L18.3033 26.8196C18.2296 26.8479 18.1515 26.8806 18.0734 26.9132L17.4987 27.1734L17.271 27.2855L15.7474 28.202L15.5566 28.338L15.0447 28.7331C14.9851 28.7801 14.9261 28.828 14.868 28.8768L13.5927 30.1166L13.0256 30.7958C12.9389 30.909 12.8684 31.0037 12.7979 31.1005L12.4585 31.5925C12.4119 31.6611 12.3717 31.7231 12.3338 31.7863L11.5335 33.2644C10.9245 34.5954 10.5573 36.0248 10.4491 37.4854L10.4903 39.855C10.4913 39.9441 10.4747 40.0324 10.4413 40.1149C10.4079 40.1975 10.3584 40.2725 10.2959 40.3356C10.2333 40.3987 10.1588 40.4487 10.0767 40.4826C9.99469 40.5165 9.90673 40.5337 9.81801 40.5331L7.36296 40.5222C7.29559 40.521 7.22875 40.51 7.16452 40.4896C5.82856 40.0694 4.6108 39.0452 3.62509 37.5203L2.17744 37.5137C1.59955 37.5126 1.04572 37.2813 0.637496 36.8708C0.22927 36.4602 -1.14204e-06 35.9038 0 35.3237L0.0357858 28.1639C0.0426389 27.5866 0.276051 27.0354 0.685348 26.6299C1.09465 26.2243 1.64679 25.9972 2.2219 25.9978H2.57541C2.79663 23.6413 4.03933 15.8327 10.7191 15.0066L10.718 15.0077ZM128.758 27.8319C128.784 27.8299 128.811 27.8299 128.838 27.8319L131.168 27.8439L131.2 21.0268L128.864 21.0138H128.859L128.306 21.0105L128.277 27.8286L128.758 27.8319ZM129.54 19.6826L130.381 19.688L131.178 19.6913C131.099 18.7445 130.963 17.8034 130.77 16.8733L130.365 16.1408L129.558 16.1353L129.54 19.6826ZM23.0757 50.0016C21.5303 50.007 19.9992 49.7043 18.5712 49.1111C17.1433 48.5178 15.8469 47.6459 14.7574 46.5458C10.216 41.9753 10.2539 34.5782 14.8387 30.0534C17.0341 27.8833 19.9945 26.6714 23.0757 26.6814C24.6209 26.6758 26.1518 26.9783 27.5795 27.5713C29.0073 28.1644 30.3035 29.0362 31.3929 30.1362C32.472 31.2211 33.3263 32.5098 33.9067 33.9278C34.4871 35.3458 34.782 36.8652 34.7745 38.3982C34.7669 39.9313 34.457 41.4476 33.8627 42.8598C33.2683 44.272 32.4013 45.5521 31.3116 46.6263C29.1048 48.8032 26.1803 50.0005 23.0757 50.0005V50.0016ZM23.0757 28.0137C20.3469 28.0054 17.7254 29.0797 15.7821 31.0026C14.817 31.9538 14.049 33.0874 13.5226 34.338C12.9961 35.5886 12.7215 36.9314 12.7147 38.2891C12.7078 39.6467 12.9688 40.9923 13.4826 42.2482C13.9964 43.5041 14.7529 44.6454 15.7084 45.6064C16.6736 46.5805 17.8218 47.3527 19.0864 47.8783C20.351 48.4039 21.7069 48.6724 23.0757 48.6683C25.8044 48.6761 28.4257 47.6019 30.3692 45.6793C31.3344 44.7281 32.1024 43.5945 32.6289 42.3439C33.1553 41.0932 33.4299 39.7503 33.4366 38.3926C33.4434 37.0349 33.1822 35.6893 32.6682 34.4335C32.1542 33.1776 31.3976 32.0363 30.4419 31.0755C29.4773 30.1008 28.3295 29.3282 27.0649 28.8026C25.8004 28.277 24.4443 28.0088 23.0757 28.0137ZM23.0757 47.0149C21.9259 47.0192 20.7867 46.7942 19.7243 46.3528C18.662 45.9115 17.6975 45.2626 16.8871 44.4439C16.0812 43.6391 15.4433 42.6811 15.0106 41.6259C14.5779 40.5707 14.3591 39.4396 14.367 38.2985C14.3701 37.1572 14.5999 36.0279 15.043 34.9768C15.4862 33.9257 16.1337 32.9739 16.9478 32.177C18.5799 30.5612 20.7822 29.6585 23.0746 29.6659C23.4173 29.6659 23.7556 29.6855 24.0896 29.7236C24.1329 29.7247 24.1763 29.7302 24.2175 29.74C26.1295 29.986 27.9053 30.8646 29.2643 32.2369C30.1725 33.1473 30.8656 34.2507 31.2925 35.4658C31.7195 36.6808 31.8694 37.9765 31.7312 39.2574L31.728 39.2923C31.5112 41.2708 30.6188 43.113 29.2024 44.506C27.57 46.1209 25.3677 47.0228 23.0757 47.0149ZM22.3481 40.4221C22.4564 40.422 22.5632 40.4481 22.6593 40.4983C22.772 40.5444 22.8695 40.6216 22.9403 40.721C23.0111 40.8204 23.0524 40.9379 23.0594 41.0599L23.3999 45.675L23.4324 45.6728L23.8185 41.0643C23.8292 40.9382 23.8755 40.8178 23.952 40.7172C24.0284 40.6166 24.1318 40.5399 24.2501 40.4961L24.275 40.482C24.3898 40.4348 24.5153 40.4203 24.6377 40.4401C24.7601 40.4599 24.8748 40.5131 24.969 40.5941L28.3306 43.4861L28.3761 43.4404L25.5079 40.0618C25.4277 39.9678 25.3753 39.8532 25.3567 39.7308C25.3381 39.6084 25.354 39.4833 25.4028 39.3695L25.4234 39.3249C25.471 39.2115 25.5492 39.1138 25.6492 39.0426C25.7492 38.9715 25.8671 38.9298 25.9894 38.9222L30.4354 38.5967L30.4386 38.5347L25.9927 38.1646C25.87 38.1549 25.7524 38.1114 25.6529 38.0388C25.5534 37.9661 25.4758 37.8673 25.4288 37.7532L25.4104 37.7097C25.3635 37.5956 25.3493 37.4708 25.3692 37.3491C25.3891 37.2274 25.4424 37.1137 25.5231 37.0207L28.5941 33.4766C28.5891 33.4705 28.584 33.4643 28.5789 33.4581L24.9885 36.4841C24.887 36.5688 24.763 36.6219 24.6318 36.6368C24.5006 36.6517 24.3679 36.6277 24.2501 36.5679C24.14 36.5164 24.045 36.4376 23.9738 36.339C23.9026 36.2403 23.8577 36.125 23.8434 36.004L23.4877 31.1822L23.0844 35.9997C23.0738 36.1228 23.0294 36.2404 22.956 36.3396C22.8827 36.4388 22.7833 36.5156 22.669 36.5613L22.6267 36.5787C22.5123 36.6255 22.3873 36.6399 22.2654 36.6203C22.1434 36.6007 22.0291 36.5479 21.9349 36.4677L18.261 33.3079L21.396 36.9978C21.4825 37.0991 21.5367 37.2241 21.5514 37.3568C21.5661 37.4894 21.5406 37.6233 21.4784 37.7412C21.4312 37.8541 21.3533 37.9514 21.2536 38.0219C21.1538 38.0923 21.0363 38.1331 20.9145 38.1396L16.0749 38.4933L20.9112 38.8972C21.035 38.9072 21.1535 38.9516 21.2535 39.0254C21.3534 39.0992 21.4309 39.1996 21.4773 39.3151L21.4936 39.351C21.5404 39.4651 21.5546 39.5899 21.5347 39.7116C21.5148 39.8333 21.4615 39.947 21.3808 40.04L18.2068 43.7038L21.9154 40.5788C22.0372 40.477 22.1906 40.4212 22.3491 40.421L22.3481 40.4221ZM19.2283 44.5909C20.0893 45.1199 21.0457 45.4606 22.0509 45.5988L21.8156 42.4107L19.2283 44.5909ZM25.0482 42.4259L24.7933 45.4704C25.6873 45.2578 26.5334 44.8782 27.2874 44.3514L25.0482 42.4259ZM15.8591 39.8169C16.0804 40.9017 16.5484 41.9205 17.2265 42.7938L19.5406 40.1228L15.8591 39.8169ZM27.346 40.1598L29.2274 42.377C29.7183 41.6379 30.0694 40.8143 30.263 39.9475L27.346 40.1598ZM27.3622 36.9412L30.3421 37.1883C30.1968 36.2691 29.8765 35.3866 29.3987 34.589L27.3622 36.9412ZM17.1213 34.035C16.4453 34.964 15.9969 36.0398 15.8125 37.1752L19.5569 36.9031L17.1213 34.035ZM24.8335 31.2192L25.0872 34.6533L27.5856 32.5471C26.7721 31.9141 25.8341 31.4616 24.8335 31.2192ZM19.0298 32.2086L21.8547 34.6358L22.1539 31.0657C21.0392 31.2004 19.9704 31.5915 19.0309 32.2086H19.0298ZM23.9876 40.5081H23.9844L22.8978 40.5026C22.8099 40.5024 22.7229 40.4848 22.6418 40.4508C22.5607 40.4168 22.487 40.3671 22.425 40.3045L21.6606 39.5361C21.5988 39.4739 21.5499 39.4 21.5168 39.3188C21.4837 39.2375 21.4669 39.1504 21.4675 39.0626L21.4719 37.9796C21.473 37.8033 21.5445 37.6345 21.6714 37.5094L22.4424 36.7475C22.5032 36.6831 22.5771 36.6326 22.6591 36.5994C22.741 36.5662 22.8291 36.551 22.9174 36.5548L24.005 36.5592C24.1817 36.5613 24.352 36.631 24.4767 36.7562L25.2423 37.5268C25.367 37.6531 25.4375 37.8229 25.4364 38.0003L25.431 39.0822C25.4304 39.1698 25.4126 39.2565 25.3786 39.3372C25.3445 39.4179 25.2949 39.4911 25.2325 39.5524L24.4593 40.3154C24.3334 40.4392 24.164 40.5084 23.9876 40.5081ZM23.1819 39.1693L23.7133 39.1736L24.0928 38.7992L24.095 38.2691L23.7209 37.8914L23.1885 37.8903L22.81 38.2626L22.8078 38.7938L23.1819 39.1693ZM106.355 50.0016C104.81 50.007 103.279 49.7043 101.851 49.1111C100.423 48.5178 99.1265 47.6459 98.0369 46.5458C93.4955 41.9753 93.5335 34.5782 98.1193 30.0534C100.314 27.8834 103.274 26.6714 106.355 26.6814C109.503 26.6814 112.458 27.907 114.672 30.1362C115.751 31.2211 116.606 32.5097 117.186 33.9277C117.767 35.3457 118.062 36.865 118.054 38.398C118.047 39.931 117.737 41.4473 117.143 42.8596C116.549 44.2718 115.682 45.552 114.592 46.6263C112.384 48.8032 109.46 50.0005 106.356 50.0005L106.355 50.0016ZM106.355 28.0137C103.627 28.0057 101.005 29.0799 99.0617 31.0026C98.0967 31.9539 97.3288 33.0875 96.8025 34.3381C96.2761 35.5887 96.0015 36.9315 95.9947 38.2891C95.9878 39.6467 96.2488 40.9922 96.7625 42.2481C97.2763 43.504 98.0326 44.6454 98.9879 45.6064C99.9531 46.5805 101.101 47.3527 102.366 47.8783C103.631 48.4039 104.987 48.6724 106.355 48.6683C109.084 48.6765 111.705 47.6022 113.649 45.6793C114.614 44.7281 115.382 43.5945 115.908 42.3439C116.435 41.0932 116.709 39.7503 116.716 38.3926C116.723 37.0349 116.462 35.6893 115.948 34.4335C115.434 33.1776 114.677 32.0363 113.721 31.0755C112.757 30.1008 111.609 29.3283 110.344 28.8027C109.08 28.277 107.724 28.0088 106.355 28.0137ZM106.355 47.0149C105.206 47.0191 104.067 46.794 103.004 46.3527C101.942 45.9113 100.978 45.2625 100.168 44.4439C99.3616 43.6393 98.7234 42.6813 98.2905 41.6261C97.8576 40.5709 97.6387 39.4396 97.6465 38.2985C97.6495 37.1572 97.8793 36.0279 98.3225 34.9768C98.7656 33.9256 99.4132 32.9738 100.227 32.177C101.86 30.561 104.062 29.6584 106.355 29.6659C106.697 29.6659 107.035 29.6855 107.369 29.7236C107.412 29.7247 107.456 29.7302 107.497 29.74C109.409 29.986 111.185 30.8646 112.544 32.2369C113.626 33.323 114.4 34.6796 114.785 36.1665C115.17 37.6533 115.153 39.2164 114.734 40.6942C114.213 42.5197 113.113 44.1245 111.6 45.2651C110.088 46.4057 108.246 47.0197 106.354 47.0138L106.355 47.0149ZM105.627 40.4221C105.735 40.4217 105.842 40.4474 105.938 40.4972C106.051 40.5436 106.148 40.6211 106.219 40.7206C106.29 40.8201 106.332 40.9378 106.339 41.0599L106.679 45.675L106.712 45.6728L107.098 41.0643C107.109 40.9387 107.155 40.8188 107.231 40.7182C107.306 40.6177 107.409 40.5407 107.526 40.4961L107.556 40.482C107.67 40.4352 107.795 40.421 107.917 40.4407C108.039 40.4605 108.153 40.5136 108.247 40.5941L111.611 43.4861L111.656 43.4404L108.787 40.0618C108.708 39.9689 108.655 39.8555 108.636 39.7344C108.617 39.6133 108.632 39.4892 108.679 39.3761L108.705 39.3217C108.752 39.2087 108.83 39.1113 108.93 39.0407C109.03 38.9701 109.147 38.929 109.269 38.9222L113.716 38.5967L113.718 38.5347L109.273 38.1646C109.152 38.155 109.036 38.1124 108.937 38.0415C108.838 37.9705 108.761 37.8739 108.713 37.7619L108.691 37.7107C108.644 37.5967 108.629 37.4716 108.649 37.3497C108.668 37.2277 108.722 37.1138 108.803 37.0207L111.874 33.4755L111.858 33.4581L108.269 36.4841C108.167 36.5692 108.043 36.6226 107.911 36.6375C107.779 36.6524 107.646 36.6282 107.527 36.5679C107.418 36.5159 107.324 36.4369 107.253 36.3383C107.183 36.2397 107.138 36.1246 107.124 36.004L106.768 31.18L106.364 35.9997C106.353 36.1223 106.309 36.2396 106.237 36.3387C106.164 36.4379 106.065 36.5149 105.952 36.5613L105.908 36.5787C105.794 36.6259 105.668 36.6405 105.546 36.6209C105.424 36.6014 105.309 36.5484 105.214 36.4677L101.539 33.309L104.676 36.9989C104.84 37.1948 104.879 37.4669 104.776 37.6999C104.677 37.9263 104.44 38.1211 104.193 38.1407L99.3534 38.4944L104.19 38.8983C104.439 38.92 104.656 39.0778 104.754 39.3086L104.772 39.3521C104.819 39.4661 104.833 39.591 104.813 39.7127C104.793 39.8345 104.74 39.9482 104.659 40.0411L101.486 43.706L105.195 40.5799C105.316 40.4784 105.469 40.4226 105.627 40.4221ZM102.508 44.5909C103.37 45.1199 104.325 45.4606 105.33 45.5988L105.096 42.4107L102.508 44.5909ZM108.328 42.4259L108.073 45.4704C108.967 45.2577 109.813 44.8782 110.567 44.3514L108.328 42.4259ZM99.1387 39.8169C99.3602 40.9018 99.8286 41.9206 100.507 42.7938L102.82 40.1228L99.1387 39.8169ZM110.626 40.1598L112.507 42.377C112.998 41.638 113.349 40.8144 113.543 39.9475L110.626 40.1598ZM110.642 36.9412L113.621 37.1883C113.476 36.269 113.156 35.3865 112.678 34.589L110.642 36.9412ZM100.402 34.035C99.7258 34.964 99.277 36.0398 99.092 37.1752L102.837 36.9031L100.402 34.035ZM108.114 31.2192L108.367 34.6522L110.865 32.5471C110.052 31.9142 109.114 31.4616 108.114 31.2192ZM102.31 32.2086L105.134 34.6358L105.434 31.0657C104.319 31.2003 103.25 31.5914 102.31 32.2086ZM107.268 40.5081H107.265L106.177 40.5026C106.089 40.5024 106.002 40.4848 105.921 40.4508C105.84 40.4168 105.767 40.3671 105.705 40.3045L104.94 39.5361C104.878 39.4738 104.83 39.3999 104.797 39.3187C104.763 39.2374 104.747 39.1504 104.747 39.0626L104.753 37.9796C104.753 37.8033 104.824 37.6345 104.951 37.5094L105.722 36.7475C105.849 36.6234 106.031 36.57 106.197 36.5548L107.285 36.5592C107.462 36.5603 107.632 36.6319 107.757 36.7583L108.522 37.5268C108.647 37.6531 108.716 37.8229 108.715 38.0003L108.711 39.0822C108.71 39.1699 108.693 39.2566 108.658 39.3374C108.624 39.4181 108.575 39.4912 108.512 39.5524L107.739 40.3154C107.613 40.439 107.444 40.5081 107.268 40.5081ZM106.462 39.1693L106.993 39.1736L107.372 38.7992L107.375 38.2691L107 37.8914L106.469 37.8903L106.09 38.2626L106.087 38.7938L106.462 39.1693ZM137.961 25.0193C137.873 25.0192 137.786 25.0017 137.706 24.9679C137.625 24.9341 137.552 24.8847 137.49 24.8224C137.428 24.7601 137.379 24.6863 137.346 24.605C137.313 24.5237 137.296 24.4367 137.296 24.3488C137.297 24.1721 137.369 24.0031 137.494 23.879C137.62 23.7549 137.789 23.6859 137.965 23.687H137.969L169.13 23.8917C172.724 22.9708 173.476 20.7286 173.629 19.6467L137.604 19.503C137.516 19.5029 137.43 19.4854 137.349 19.4516C137.268 19.4179 137.194 19.3684 137.133 19.3062C137.071 19.2439 137.022 19.17 136.988 19.0888C136.955 19.0075 136.938 18.9204 136.938 18.8325C136.94 18.6555 137.011 18.4863 137.136 18.3619C137.261 18.2375 137.431 18.168 137.607 18.1686H137.609L174.331 18.3144C174.676 18.3155 174.964 18.5789 174.995 18.9218C175 18.9686 175.339 23.5259 169.74 25.1097C168.054 30.1372 164.298 30.306 163.805 30.306L163.757 30.3049L163.588 30.3038C162.305 35.2127 158.836 35.6557 157.629 35.6557C157.461 35.6557 157.336 35.6481 157.27 35.6405L155.033 35.6078C155.03 35.6309 155.026 35.6538 155.021 35.6764C153.796 40.8303 150.226 41.2874 148.999 41.2874C148.827 41.2874 148.701 41.2798 148.634 41.2733L137.555 40.9946C137.468 40.9926 137.381 40.9734 137.301 40.9379C137.221 40.9024 137.148 40.8514 137.088 40.7878C137.027 40.7243 136.98 40.6493 136.948 40.5673C136.917 40.4853 136.901 40.3979 136.903 40.31C136.905 40.2219 136.924 40.1351 136.96 40.0546C136.995 39.9741 137.046 39.9015 137.11 39.8411C137.174 39.7806 137.249 39.7336 137.331 39.7027C137.414 39.6719 137.501 39.6578 137.589 39.6613L148.693 39.9399C148.718 39.9421 148.745 39.9432 148.77 39.9475C148.916 39.966 152.419 40.372 153.663 35.5893L137.759 35.3608C137.582 35.3585 137.414 35.2861 137.29 35.1594C137.167 35.0327 137.098 34.8621 137.1 34.6848C137.103 34.5091 137.175 34.3417 137.3 34.2188C137.425 34.0958 137.594 34.0271 137.769 34.0274H137.778L157.315 34.3071C157.345 34.3071 157.372 34.3104 157.401 34.3148C157.546 34.3322 160.882 34.7207 162.2 30.2951L137.88 30.1449C137.793 30.1446 137.706 30.1269 137.625 30.093C137.544 30.059 137.471 30.0094 137.409 29.9469C137.347 29.8844 137.298 29.8103 137.265 29.7289C137.232 29.6474 137.215 29.5602 137.216 29.4722C137.217 29.2955 137.289 29.1267 137.414 29.0027C137.54 28.8787 137.709 28.8095 137.885 28.8104H137.889L163.784 28.9715C163.916 28.9759 166.763 28.9802 168.271 25.2207L137.961 25.0193Z" fill="white"/>
</svg>
